<?xml version="1.0" encoding="utf-8"?>
<!-- Generator: Adobe Illustrator 26.5.0, SVG Export Plug-In . SVG Version: 6.00 Build 0)  -->
<svg version="1.1" id="Layer_1" xmlns="http://www.w3.org/2000/svg" xmlns:xlink="http://www.w3.org/1999/xlink" x="0px" y="0px"
	 viewBox="0 0 371 117" style="enable-background:new 0 0 371 117;" xml:space="preserve">
<style type="text/css">
	.st0{fill:#718BA6;}
	.st1{fill-rule:evenodd;clip-rule:evenodd;fill:#718BA6;}
</style>
<path class="st0" d="M99.64,17.1C82.94,0.41,57.85-4.59,36.04,4.44C14.23,13.47,0,34.76,0,58.37c0,32.23,26.13,58.37,58.36,58.37
	c23.61,0,44.9-14.21,53.93-36.03C121.32,58.89,116.34,33.79,99.64,17.1z M75.12,86.04L58.44,41.43h-0.01h-0.17L45.98,74.17
	l-4.45,11.87h-11.4l7.28-18.34l-0.02-0.07l0.02-0.03l0.01-0.03l15.97-40.25h9.82l8.8,22.2l11.24,28.35l3.24,8.17H75.12z"/>
<path id="Path_00000135684076777071018730000018168423096577723776_" class="st1" d="M218.2,87.01c-3.67,0.13-7.32-0.61-10.65-2.16
	c-2.64-1.29-4.86-3.32-6.38-5.84c-0.78-1.35-1.35-2.82-1.69-4.34c-0.38-1.73-0.57-3.49-0.55-5.26V43.44h10.43v24.85
	c-0.02,1.24,0.08,2.48,0.3,3.7c0.18,0.94,0.49,1.84,0.93,2.69c0.66,1.25,1.72,2.26,3,2.87c1.45,0.66,3.03,0.98,4.62,0.94
	c1.66,0.06,3.32-0.28,4.82-1c1.33-0.7,2.39-1.83,3-3.2c0.75-1.81,1.09-3.77,1-5.73V43.44h10.43v25.94c0.09,3.01-0.52,6-1.8,8.72
	c-0.68,1.35-1.57,2.58-2.62,3.66c-1.11,1.12-2.39,2.07-3.79,2.8c-1.55,0.82-3.21,1.42-4.93,1.8c-2.02,0.44-4.08,0.65-6.14,0.63"/>
<path id="Path_00000018941230742784010290000007937094365613397412_" class="st1" d="M273.41,51.76h-0.88
	c-2.87-0.05-5.73,0.43-8.43,1.42c-2.27,0.84-4.23,2.36-5.61,4.36v28.47h-10.43V43.52h10.43v4.7c2-4.7,12.12-4.7,12.12-4.7h2.8V51.76
	z"/>
<path id="Path_00000080926156342739128400000012918326496352370618_" class="st1" d="M356.08,51.76h-0.88
	c-2.87-0.05-5.73,0.43-8.43,1.42c-2.27,0.84-4.23,2.36-5.61,4.36v28.47h-10.43V43.52h10.43v4.7c2-4.7,12.12-4.7,12.12-4.7h2.8V51.76
	L356.08,51.76z"/>
<path id="Shape" class="st1" d="M311.36,64.75c0.03-2.03-0.24-4.05-0.8-6c-0.46-1.59-1.21-3.09-2.23-4.4
	c-0.91-1.16-2.09-2.07-3.44-2.67c-1.38-0.6-2.87-0.9-4.38-0.89c-1.48-0.01-2.95,0.29-4.31,0.89c-1.34,0.6-2.51,1.51-3.42,2.67
	c-1.02,1.31-1.78,2.8-2.24,4.4c-1.07,3.96-1.07,8.14,0,12.1c0.46,1.59,1.23,3.08,2.26,4.38c0.93,1.14,2.11,2.05,3.44,2.67
	c1.37,0.62,2.86,0.93,4.36,0.91c1.49,0.02,2.97-0.29,4.33-0.91c1.32-0.62,2.48-1.53,3.4-2.67c1.02-1.3,1.77-2.79,2.23-4.38
	c0.57-1.97,0.84-4,0.8-6.05 M322.31,64.8c0.03,3.13-0.48,6.25-1.52,9.21c-0.94,2.67-2.42,5.1-4.36,7.16
	c-1.92,2.01-4.26,3.58-6.85,4.6c-2.87,1.12-5.92,1.68-9,1.63c-3.12,0.05-6.23-0.5-9.14-1.63c-2.6-1.01-4.94-2.58-6.86-4.6
	c-1.91-2.06-3.37-4.5-4.29-7.16c-2.01-6-2.01-12.5,0-18.5c0.94-2.66,2.43-5.1,4.36-7.16c1.93-2.01,4.27-3.58,6.86-4.6
	c2.87-1.12,5.92-1.68,9-1.63c3.12-0.05,6.22,0.5,9.13,1.63c2.6,1.01,4.94,2.58,6.86,4.6c1.92,2.06,3.39,4.5,4.31,7.16
	c1.03,2.97,1.54,6.1,1.5,9.25"/>
<polygon id="Path_00000154391459343026384640000005051552198842159239_" class="st1" points="170.31,27.28 160.45,27.28 
	137.08,85.9 148.57,85.9 165.33,41.38 165.51,41.38 182.28,85.9 193.68,85.9 "/>
<circle id="Oval" class="st0" cx="363.23" cy="78.76" r="7.15"/>
</svg>
