<?xml version="1.0" encoding="utf-8"?>
<!-- Generator: Adobe Illustrator 26.5.0, SVG Export Plug-In . SVG Version: 6.00 Build 0)  -->
<svg version="1.1" id="drivecentric" xmlns="http://www.w3.org/2000/svg" xmlns:xlink="http://www.w3.org/1999/xlink" x="0px"
	 y="0px" viewBox="0 0 388.14 62.31" style="enable-background:new 0 0 388.14 62.31;" xml:space="preserve">
<style type="text/css">
	.st0{fill:#718BA6;}
</style>
<path class="st0" d="M30,62.31c0.38-0.94,0.96-1.78,1.46-2.66c4.09-7.15,8.2-14.29,12.31-21.43c0.22-0.39,0.44-0.79,0.7-1.15
	c0.15-0.21,0.05-0.34-0.04-0.5c-2.88-4.98-5.75-9.97-8.62-14.96c-0.24-0.41-0.1-0.68,0.36-0.75c0.13-0.02,0.26-0.01,0.39-0.01
	c2.45,0,4.9,0.01,7.34-0.01c0.78-0.01,1.3,0.31,1.69,0.99c2.73,4.77,5.45,9.53,8.24,14.27c0.37,0.63,0.31,1-0.02,1.59
	c-4.45,7.88-9.01,15.69-13.5,23.54c-0.21,0.37-0.47,0.72-0.7,1.08C36.4,62.31,33.2,62.31,30,62.31z"/>
<path class="st0" d="M71.05,27.95c0-6.36,0-12.73,0-19.09c0-0.11,0-0.23,0-0.34c0.01-1.23,0.52-1.76,1.75-1.76
	c4.22,0,8.44,0,12.66,0c1.98,0,3.95,0.01,5.92,0.29c3.43,0.5,6.62,1.57,9.2,4.02c2.1,2,3.28,4.5,3.92,7.29
	c0.42,1.84,0.52,3.72,0.6,5.6c0.13,3.11,0.08,6.21-0.05,9.31c-0.11,2.53-0.5,5.01-1.45,7.38c-1.67,4.16-4.81,6.62-9.07,7.75
	c-2.23,0.59-4.51,0.82-6.82,0.82c-4.95,0-9.91,0-14.86,0c-1.26,0-1.78-0.52-1.78-1.78C71.05,40.94,71.05,34.45,71.05,27.95z
	 M79.51,27.97c0,4.52,0.01,9.04-0.01,13.56c0,0.49,0.09,0.67,0.63,0.66c2.15-0.04,4.29-0.02,6.44-0.01c1.06,0,2.11-0.05,3.15-0.21
	c2.97-0.44,5.17-1.85,6.13-4.84c0.33-1.03,0.55-2.08,0.61-3.15c0.15-2.67,0.28-5.34,0.17-8.01c-0.08-1.82-0.02-3.65-0.39-5.45
	c-0.59-2.91-2.05-5.1-5-6.07c-1.15-0.38-2.34-0.58-3.55-0.6c-2.54-0.04-5.09-0.01-7.63-0.04c-0.5-0.01-0.57,0.16-0.57,0.6
	C79.52,18.93,79.51,23.45,79.51,27.97z"/>
<path class="st0" d="M196.74,35.85c-3.16,0-6.33,0.01-9.49-0.01c-0.44,0-0.59,0.11-0.56,0.56c0.1,1.56,0.39,3.06,1.15,4.44
	c1.88,3.42,6.14,4.34,9.3,2.04c0.6-0.44,1.13-0.94,1.56-1.54c0.5-0.7,1.12-1.01,2.01-0.98c1.66,0.06,3.31,0.02,4.97,0.02
	c1.23,0,1.71,0.61,1.4,1.82c-0.26,1.03-0.85,1.88-1.54,2.66c-1.92,2.19-4.38,3.55-7.14,4.31c-3.31,0.92-6.66,0.96-9.99,0.06
	c-4.52-1.23-7.57-4.12-8.96-8.57c-1.38-4.4-1.46-8.9-0.23-13.36c1.78-6.43,6.74-10.13,13.43-10.2c2.45-0.03,4.85,0.22,7.12,1.2
	c3.96,1.72,6.26,4.85,7.47,8.89c0.69,2.31,0.82,4.7,0.78,7.09c-0.02,1.05-0.64,1.58-1.78,1.58
	C203.07,35.85,199.91,35.85,196.74,35.85z M193.23,30.65c2.02,0,4.03-0.01,6.04,0.01c0.38,0,0.49-0.11,0.48-0.48
	c-0.07-1.36-0.26-2.7-0.87-3.94c-1.11-2.26-2.92-3.5-5.45-3.57c-2.31-0.07-4.19,0.78-5.45,2.79c-0.9,1.43-1.2,3.02-1.29,4.68
	c-0.02,0.45,0.15,0.52,0.55,0.52C189.24,30.64,191.23,30.65,193.23,30.65z"/>
<path class="st0" d="M161.57,39.93c0.75-2.02,1.46-3.9,2.16-5.78c1.9-5.1,3.8-10.21,5.7-15.31c0.31-0.82,0.79-1.16,1.67-1.16
	c1.51-0.01,3.02,0.05,4.52-0.02c1.39-0.07,1.88,1.09,1.45,2.17c-1.43,3.59-2.86,7.19-4.29,10.79c-2.22,5.59-4.43,11.17-6.65,16.76
	c-0.59,1.48-1.15,1.86-2.72,1.86c-1.3,0-2.6,0-3.9,0c-1.37,0-1.92-0.37-2.44-1.66c-1.96-4.92-3.92-9.84-5.89-14.76
	c-1.72-4.31-3.44-8.62-5.16-12.93c-0.26-0.65-0.3-1.28,0.24-1.83c0.28-0.28,0.63-0.39,1.02-0.38c1.54,0.01,3.09,0,4.63,0.01
	c1,0,1.47,0.34,1.82,1.28c2.52,6.76,5.03,13.52,7.55,20.27C161.37,39.42,161.44,39.61,161.57,39.93z"/>
<path class="st0" d="M212.25,28.01c0.01-2.47-0.06-4.93,0.21-7.39c0.42-3.84,1.62-7.37,4.29-10.28c1.79-1.95,4.04-3.12,6.61-3.66
	c4.18-0.88,8.34-0.84,12.31,0.83c5.03,2.12,7.8,6.02,8.42,11.43c0.12,1.07-0.33,1.54-1.41,1.55c-2.04,0.01-2.03,0.01-2.53-1.97
	c-0.31-1.24-0.75-2.44-1.36-3.57c-1.14-2.1-2.85-3.53-5.1-4.28c-3.04-1.01-6.14-1.15-9.24-0.41c-4.18,1-6.62,3.79-7.68,7.87
	c-0.57,2.19-0.7,4.42-0.69,6.66c0.02,3.22-0.12,6.44,0.13,9.65c0.15,1.92,0.53,3.8,1.31,5.57c1.31,2.95,3.55,4.83,6.64,5.65
	c2.96,0.78,5.93,0.67,8.87-0.12c3.45-0.94,5.58-3.26,6.68-6.6c0.25-0.75,0.43-1.52,0.64-2.28c0.24-0.88,0.57-1.15,1.47-1.16
	c0.3,0,0.6,0,0.9,0c1.05,0.01,1.5,0.48,1.38,1.51c-0.56,4.98-2.99,8.71-7.47,11.04c-1.86,0.97-3.87,1.45-5.94,1.65
	c-2.7,0.25-5.38,0.16-8.01-0.56c-4.39-1.2-7.2-4.11-8.87-8.23c-0.95-2.35-1.36-4.8-1.47-7.32
	C212.24,31.74,212.25,29.87,212.25,28.01z"/>
<path class="st0" d="M263.58,34.98c-3.43,0-6.86,0-10.29,0c-0.29,0-0.56-0.05-0.54,0.41c0.15,3.4,1.17,6.42,3.74,8.78
	c2.02,1.85,4.45,2.31,7.09,2.06c2.98-0.29,5.29-1.72,7.03-4.1c0.44-0.6,0.95-0.94,1.71-0.85c0.35,0.04,0.72-0.01,1.07,0.01
	c0.74,0.05,1.18,0.62,1.07,1.36c-0.13,0.85-0.56,1.55-1.08,2.2c-2,2.5-4.66,3.95-7.74,4.62c-3,0.65-5.99,0.58-8.85-0.69
	c-3.41-1.52-5.46-4.27-6.68-7.7c-0.7-1.96-1.02-4-1.06-6.09c-0.05-2.69-0.04-5.38,0.7-8c0.93-3.28,2.58-6.09,5.49-8.01
	c2.34-1.55,4.96-1.98,7.71-1.87c6,0.24,10.32,3.9,11.79,9.97c0.53,2.18,0.67,4.38,0.62,6.61c-0.02,0.85-0.53,1.3-1.5,1.3
	c-3.09,0.01-6.18,0-9.27,0C264.26,34.98,263.92,34.98,263.58,34.98z M262.19,31.57c3.01,0,6.02-0.01,9.03,0.01
	c0.4,0,0.5-0.1,0.49-0.5c-0.03-0.83-0.1-1.65-0.25-2.47c-0.66-3.52-3.2-7.57-8.36-7.96c-2.64-0.2-5.07,0.33-7.05,2.2
	c-2.39,2.26-3.25,5.15-3.3,8.36c-0.01,0.45,0.27,0.36,0.52,0.36C256.25,31.57,259.22,31.57,262.19,31.57z"/>
<path class="st0" d="M118.45,21.58c0.3-0.33,0.5-0.56,0.72-0.79c2.09-2.24,4.75-3.07,7.72-3.12c0.85-0.01,1.7-0.01,2.54,0
	c1.03,0.01,1.53,0.51,1.53,1.52c0.01,1.43,0,2.86,0,4.29c0,1.04-0.51,1.54-1.57,1.54c-1.41,0-2.83,0-4.24,0
	c-4.15,0-6.35,2.19-6.36,6.34c-0.01,5.37,0,10.73,0,16.1c0,1.26-0.48,1.75-1.73,1.75c-1.6,0-3.2,0-4.8,0
	c-1.12,0-1.66-0.55-1.66-1.67c0-9.38,0-18.75,0-28.13c0-1.22,0.54-1.75,1.75-1.75c1.47,0,2.94,0,4.41,0c1.12,0,1.67,0.54,1.69,1.65
	C118.46,20.03,118.45,20.74,118.45,21.58z"/>
<path class="st0" d="M51.99,53.16c-1.26,0-2.52,0-3.79,0c-0.87,0-1.01-0.25-0.57-1.02c1.96-3.39,3.92-6.77,5.89-10.15
	c0.94-1.61,1.8-3.26,2.83-4.82c0.11-0.17,0.05-0.26-0.03-0.39c-2.78-4.82-5.56-9.64-8.32-14.47c-0.62-1.09-0.96-1.5,0.85-1.47
	c2.3,0.05,4.6,0.03,6.89,0c0.83-0.01,1.39,0.34,1.79,1.04c2.71,4.71,5.41,9.43,8.15,14.13c0.37,0.64,0.42,1.15,0.03,1.81
	c-2.76,4.75-5.5,9.51-8.22,14.28c-0.42,0.73-0.98,1.08-1.83,1.06C54.44,53.13,53.21,53.16,51.99,53.16z"/>
<path class="st0" d="M284.71,21.82c0.67-0.8,1.25-1.46,1.91-2.04c1.77-1.57,3.84-2.41,6.18-2.61c2.7-0.24,5.35-0.1,7.82,1.17
	c3,1.55,4.7,4.14,5.65,7.28c0.47,1.54,0.66,3.13,0.67,4.73c0.01,5.74,0.01,11.49,0.01,17.23c0,1.22-0.41,1.63-1.61,1.64
	c-1.82,0.01-2.08-0.25-2.08-2.09c-0.01-5.76,0.01-11.53-0.03-17.29c-0.01-1.78-0.45-3.51-1.33-5.08c-1.74-3.12-4.58-4.21-7.96-4.14
	c-5.19,0.11-8.78,3.6-9.12,8.8c-0.06,0.96-0.09,1.92-0.09,2.88c-0.01,5.14,0,10.28,0,15.42c0,1.1-0.4,1.47-1.5,1.51
	c-1.65,0.06-2.16-0.15-2.15-2.12c0.04-9.28,0.02-18.57,0.02-27.86c0-1.16,0.41-1.55,1.55-1.59c1.54-0.05,2.21,0.16,2.09,2.06
	C284.68,20.36,284.71,21,284.71,21.82z"/>
<path class="st0" d="M362.57,33.44c0-2.6,0.05-5.19,0.81-7.71c1.46-4.88,5.13-7.98,10.21-8.52c2.96-0.32,5.87-0.15,8.62,1.14
	c3.23,1.52,5.28,3.98,5.88,7.55c0.06,0.37,0.04,0.75,0.06,1.13c0.01,0.16-0.06,0.29-0.14,0.42c-0.61,0.97-2.67,0.9-3.19-0.12
	c-0.24-0.47-0.42-0.96-0.62-1.45c-1.42-3.45-4.07-5.09-7.72-5.25c-2.64-0.11-5.1,0.42-7.12,2.26c-1.57,1.43-2.39,3.28-2.73,5.32
	c-0.61,3.63-0.68,7.29,0.09,10.89c1.02,4.79,4.47,7.33,9.45,7.18c0.96-0.03,1.91-0.15,2.84-0.41c2.65-0.74,4.25-2.57,5.27-5.02
	c0.13-0.31,0.23-0.64,0.37-0.94c0.11-0.24,0.23-0.48,0.39-0.68c0.33-0.42,1.57-0.58,2.29-0.3c0.59,0.23,0.87,0.62,0.81,1.38
	c-0.24,3.2-1.77,5.66-4.42,7.42c-2.67,1.77-5.67,2.22-8.8,2.09c-2.13-0.09-4.18-0.51-6.06-1.56c-3.11-1.74-4.82-4.5-5.68-7.86
	c-0.46-1.8-0.59-3.63-0.6-5.48C362.56,34.42,362.57,33.93,362.57,33.44z"/>
<path class="st0" d="M134.24,33.43c0-4.69,0-9.37,0-14.06c0-1.18,0.51-1.69,1.67-1.7c1.54,0,3.09,0,4.63,0
	c1.11,0,1.65,0.55,1.65,1.67c0,9.41,0,18.82,0,28.24c0,1.09-0.53,1.63-1.62,1.64c-1.58,0.01-3.16,0.01-4.75,0
	c-1.04-0.01-1.59-0.57-1.59-1.61C134.24,42.88,134.24,38.15,134.24,33.43z"/>
<path class="st0" d="M315.84,31.27c0-3.16-0.01-6.33,0.01-9.49c0-0.44-0.12-0.58-0.56-0.57c-1.3,0.03-2.6,0.02-3.9,0.01
	c-1.09-0.01-1.5-0.43-1.5-1.5c-0.01-1.81,0.23-2.05,2.04-2.05c1.13,0,2.26-0.02,3.39,0.01c0.42,0.01,0.54-0.09,0.54-0.52
	c-0.02-3.11-0.01-6.21-0.01-9.32c0-1.29,0.39-1.67,1.69-1.67c0.17,0,0.34,0,0.51,0c1.01,0.01,1.47,0.47,1.47,1.5
	c0,3.14,0.01,6.29-0.01,9.43c0,0.46,0.09,0.6,0.57,0.59c2.18-0.03,4.37-0.01,6.56-0.01c1.17,0,1.59,0.42,1.59,1.61
	c0,0.17,0,0.34,0,0.51c-0.01,0.96-0.44,1.42-1.41,1.44c-1.04,0.02-2.07,0-3.11,0c-1.24,0-2.49,0.01-3.73-0.01
	c-0.31,0-0.47,0.04-0.46,0.42c0.01,5.97,0,11.94,0.02,17.91c0,1.11,0.17,2.21,0.55,3.27c0.68,1.9,2,2.84,4.01,2.86
	c1.09,0.01,2.19,0,3.28,0c1.01,0.01,1.44,0.44,1.44,1.44c0.01,1.9-0.19,2.11-2.1,2.09c-1.58-0.01-3.17,0.1-4.74-0.15
	c-2.99-0.48-4.67-2.36-5.5-5.15c-0.45-1.51-0.61-3.06-0.62-4.62C315.84,36.62,315.84,33.95,315.84,31.27z"/>
<path class="st0" d="M337.03,21.55c1.84-2.95,4.67-3.8,7.87-3.88c0.79-0.02,1.58-0.01,2.37,0c0.91,0.01,1.37,0.49,1.39,1.41
	c0.03,1.89-0.23,2.14-2.13,2.15c-1.37,0.01-2.75-0.09-4.1,0.25c-2.87,0.72-4.91,3-5.29,5.93c-0.09,0.69-0.12,1.39-0.12,2.08
	c0,6.04,0,12.09,0,18.13c0,1.13-0.44,1.58-1.56,1.59c-1.87,0.02-2.1-0.22-2.1-2.1c0-9.23,0-18.45,0-27.68c0-0.64,0-1.32,0.69-1.6
	c0.78-0.31,1.63-0.35,2.4,0.08c0.47,0.26,0.6,0.75,0.6,1.27C337.03,19.98,337.03,20.76,337.03,21.55z"/>
<path class="st0" d="M32.43,10.41c-3.43,0-6.85,0-10.28,0c-0.28,0-0.43,0.11-0.57,0.35c-2.81,4.92-5.62,9.83-8.45,14.73
	c-0.4,0.7-0.48,1.37-0.08,2.08c1.26,2.21,2.51,4.41,3.78,6.61c0.38,0.66,0.7,0.65,1.08-0.01c1.13-1.97,2.25-3.95,3.39-5.92
	c1.71-2.96,3.44-5.9,5.12-8.87c0.22-0.4,0.44-0.51,0.86-0.5c1.56,0.02,3.13,0.01,4.69,0.01l3.09-0.05c6.73,0,13.45,0.01,20.18,0.01
	c0.75,0,0.95-0.27,0.61-0.87c-1.3-2.27-2.61-4.53-3.93-6.79c-0.3-0.51-0.75-0.76-1.36-0.76L32.43,10.41z"/>
<path class="st0" d="M16.73,15.96c0.99-1.73,1.97-3.47,2.95-5.2h0c0.34-0.59,0.72-1.15,0.99-1.77c0.18-0.39,0.38-0.5,0.8-0.5
	c5.65,0.02,11.3,0.01,16.95,0.02c0.66,0,0.88-0.32,0.56-0.88c-1.28-2.26-2.57-4.51-3.88-6.75c-0.28-0.48-0.67-0.84-1.31-0.84
	c-4.77,0.01-9.53,0.02-14.3,0.02c-0.79-0.01-1.59,0.03-2.37-0.05c-0.88-0.09-1.34,0.26-1.76,1.02c-2.64,4.77-5.34,9.52-8.02,14.28
	c-0.32,0.56-0.38,1.13-0.05,1.71c1.31,2.29,2.61,4.58,3.93,6.86c0.31,0.53,0.65,0.52,0.96-0.01c0.34-0.58,0.67-1.17,1.01-1.76
	C14.37,20.06,15.56,18.01,16.73,15.96z"/>
<path class="st0" d="M356.57,33.49c0,4.71,0,9.41,0,14.12c0,1.18-0.42,1.6-1.59,1.61c-1.86,0.01-2.11-0.23-2.11-2.12
	c0-9.21,0-18.41,0-27.62c0-1.43,0.38-1.81,1.8-1.81c0.15,0,0.3,0,0.45,0c0.98,0.02,1.43,0.48,1.44,1.48c0.01,0.64,0,1.28,0,1.92
	C356.57,25.21,356.57,29.35,356.57,33.49z"/>
<path class="st0" d="M37.21,43.46c-3.79,0-7.57,0-11.36,0c-0.88,0-1.77-0.08-2.65,0.02c-0.88,0.02-1.77,0.01-2.65,0.06
	c-0.37,0.02-0.56-0.08-0.75-0.4c-4.1-7.16-8.21-14.32-12.32-21.47c-0.6-1.04-1.19-2.09-1.81-3.12c-0.3-0.51-0.6-0.51-0.94-0.03
	C4.66,18.6,4.61,18.7,4.55,18.8c-1.22,2.12-2.43,4.24-3.66,6.35c-0.4,0.69-0.4,1.32,0.01,2.01c1.1,1.86,2.16,3.75,3.24,5.62
	c3.57,6.21,7.14,12.42,10.7,18.64c0.22,0.38,0.45,0.59,0.92,0.59c2.49-0.02,4.97-0.02,7.46-0.02c0.22,0.01,0.45,0.04,0.67,0.04
	c2.86,0,5.73-0.02,8.59,0.01c0.9,0.01,1.49-0.34,1.93-1.11c1.17-2.08,2.38-4.15,3.56-6.22C38.51,43.72,38.35,43.46,37.21,43.46z"/>
<path class="st0" d="M31.37,53.73c-3.84,0-7.68-0.01-11.51,0c-0.17,0-0.33,0.03-0.5,0.04c-1.54,0-3.09-0.03-4.63,0
	c-0.52,0.01-0.75-0.12-1.02-0.61c-2.8-4.94-5.64-9.86-8.48-14.78c-0.37-0.64-0.72-0.64-1.1,0.01c-1.29,2.23-2.57,4.46-3.86,6.69
	c-0.36,0.61-0.34,1.21,0,1.82c2.84,4.94,5.68,9.88,8.51,14.82c0.19,0.33,0.43,0.48,0.82,0.48c3.26-0.01,6.52-0.02,9.78-0.02
	c0.21,0.01,0.41,0.04,0.62,0.04c2.07,0,4.14-0.05,6.21,0.02c1.04,0.03,1.68-0.37,2.18-1.25c1.16-2.08,2.38-4.13,3.58-6.2
	C32.38,54.05,32.2,53.73,31.37,53.73z"/>
<path class="st0" d="M138.24,5.13c0.89,0,1.77-0.01,2.66,0c0.96,0.01,1.55,0.59,1.57,1.55c0.02,1.45,0.02,2.9,0,4.35
	c-0.01,0.87-0.61,1.52-1.48,1.53c-1.86,0.03-3.73,0.03-5.59,0c-0.79-0.01-1.37-0.64-1.38-1.44c-0.02-1.51-0.02-3.01,0-4.52
	c0.01-0.9,0.61-1.46,1.52-1.47C136.43,5.12,137.33,5.13,138.24,5.13z"/>
<path class="st0" d="M357.22,8.76c0,0.39,0.01,0.79,0,1.18c-0.03,0.74-0.5,1.24-1.24,1.28c-0.84,0.04-1.69,0.03-2.54,0
	c-0.66-0.02-1.1-0.42-1.16-1.08c-0.1-0.95-0.1-1.91,0-2.87c0.07-0.7,0.56-1.1,1.27-1.11c0.77-0.02,1.54-0.02,2.31,0
	c0.81,0.02,1.32,0.54,1.36,1.35C357.23,7.93,357.22,8.34,357.22,8.76z"/>
</svg>
