<?xml version="1.0" encoding="utf-8"?>
<!-- Generator: Adobe Illustrator 26.5.0, SVG Export Plug-In . SVG Version: 6.00 Build 0)  -->
<svg version="1.1" id="Layer_2" xmlns="http://www.w3.org/2000/svg" xmlns:xlink="http://www.w3.org/1999/xlink" x="0px" y="0px"
	 width="59.14px" height="56.2px" viewBox="0 0 59.14 56.2" style="enable-background:new 0 0 59.14 56.2;" xml:space="preserve">
<style type="text/css">
	.st0{opacity:0.5;fill:#0C1A24;fill-opacity:0.9;stroke:url(#SVGID_1_);stroke-width:1.8808;}
	
		.st1{fill:#0C1A24;fill-opacity:0.9;stroke:url(#SVGID_00000056428176753457849940000000606058708502184584_);stroke-width:1.8808;stroke-linecap:round;stroke-linejoin:round;}
	.st2{fill:#0C1A24;fill-opacity:0.9;stroke:url(#SVGID_00000109000365744859002340000000321379025501604238_);stroke-width:1.8808;}
	
		.st3{fill:none;stroke:url(#SVGID_00000073680649096799039570000000437189235368853181_);stroke-width:1.8808;stroke-linecap:round;stroke-linejoin:round;}
	
		.st4{fill:none;stroke:url(#SVGID_00000000183931364794774230000001105035173124583585_);stroke-width:1.8808;stroke-linecap:round;stroke-linejoin:round;}
	
		.st5{fill:url(#SVGID_00000062192382980578171610000008341294532799529399_);stroke:url(#SVGID_00000116916100219686988080000010088152264877957039_);stroke-width:0.1948;}
</style>
<linearGradient id="SVGID_1_" gradientUnits="userSpaceOnUse" x1="15.0118" y1="46.4898" x2="37.6594" y2="85.7164" gradientTransform="matrix(0.9969 0.0783 -0.0783 0.9969 8.5898 -45.7638)">
	<stop  offset="0" style="stop-color:#1FF2FF"/>
	<stop  offset="1" style="stop-color:#0E72BE"/>
</linearGradient>
<path class="st0" d="M22.93,1.85l22.61,7.44c0.79,0.26,1.25,1.08,1.05,1.89l-7.31,29.84c-0.22,0.89-1.13,1.41-2,1.15
	c-4.39-1.33-16.66-4.92-22.4-5.49c-0.96-0.09-1.62-1.01-1.4-1.95L20.88,3C21.09,2.09,22.04,1.56,22.93,1.85z"/>
<linearGradient id="SVGID_00000124136402984886937860000008156946161728777127_" gradientUnits="userSpaceOnUse" x1="47.735" y1="26.6335" x2="33.9253" y2="26.6335">
	<stop  offset="0" style="stop-color:#1FF2FF"/>
	<stop  offset="1" style="stop-color:#0E72BE"/>
</linearGradient>
<polygon style="fill:#0C1A24;fill-opacity:0.9;stroke:url(#SVGID_00000124136402984886937860000008156946161728777127_);stroke-width:1.8808;stroke-linecap:round;stroke-linejoin:round;" points="
	40.51,10.31 46.79,9.65 41.23,42.44 34.87,43.61 "/>
<linearGradient id="SVGID_00000037674478581853063760000014740740406748949642_" gradientUnits="userSpaceOnUse" x1="13.4851" y1="4.7642" x2="36.1327" y2="43.9908">
	<stop  offset="0" style="stop-color:#1FF2FF"/>
	<stop  offset="1" style="stop-color:#0E72BE"/>
</linearGradient>
<path style="fill:#0C1A24;fill-opacity:0.9;stroke:url(#SVGID_00000037674478581853063760000014740740406748949642_);stroke-width:1.8808;" d="
	M16.49,4.62l23.12,5.65c0.81,0.2,1.33,0.98,1.19,1.8l-4.95,30.32c-0.15,0.9-1.02,1.49-1.91,1.3c-4.48-0.98-16.99-3.6-22.77-3.72
	c-0.96-0.02-1.69-0.88-1.55-1.83l4.91-32.21C14.68,5.01,15.59,4.4,16.49,4.62z"/>
<linearGradient id="SVGID_00000126287915179618273430000001181492473203510969_" gradientUnits="userSpaceOnUse" x1="0.0515" y1="44.7158" x2="20.1585" y2="44.7158">
	<stop  offset="0" style="stop-color:#1FF2FF"/>
	<stop  offset="1" style="stop-color:#0E72BE"/>
</linearGradient>
<path style="fill:none;stroke:url(#SVGID_00000126287915179618273430000001181492473203510969_);stroke-width:1.8808;stroke-linecap:round;stroke-linejoin:round;" d="
	M19.22,40.85c0,0-4.06,7.2-7.56,5.68c-3.5-1.52-6.64-4.3-6.64-4.3s-3.96,4.69-4.03,6.01c-0.07,1.32,4.51-1.56,5.72-2.94"/>
<linearGradient id="SVGID_00000120553170937761536580000002115173774747421364_" gradientUnits="userSpaceOnUse" x1="46.5983" y1="46.0619" x2="51.1894" y2="38.7147">
	<stop  offset="0" style="stop-color:#1FF2FF"/>
	<stop  offset="1" style="stop-color:#0E72BE"/>
</linearGradient>
<path style="fill:none;stroke:url(#SVGID_00000120553170937761536580000002115173774747421364_);stroke-width:1.8808;stroke-linecap:round;stroke-linejoin:round;" d="
	M42.04,37.68c0,0,7.89-0.46,8.99,5.7c1.09,6.16,0.35,5.35,2.76,4.2s4.43-3.56,3.45-3.97c-0.98-0.41-4.2,1.14-4.83,3.13"/>
<linearGradient id="SVGID_00000109736014984660623220000008942992786133426320_" gradientUnits="userSpaceOnUse" x1="17.0377" y1="24.1507" x2="33.4099" y2="24.1507">
	<stop  offset="0" style="stop-color:#FFFFFF;stop-opacity:0"/>
	<stop  offset="0.4693" style="stop-color:#FFFFFF"/>
</linearGradient>
<linearGradient id="SVGID_00000136381063177564962030000011746897169183499418_" gradientUnits="userSpaceOnUse" x1="16.9403" y1="24.1507" x2="33.5073" y2="24.1507">
	<stop  offset="0" style="stop-color:#FFFFFF;stop-opacity:0"/>
	<stop  offset="0.8347" style="stop-color:#FFFFFF"/>
</linearGradient>
<path style="fill:url(#SVGID_00000109736014984660623220000008942992786133426320_);stroke:url(#SVGID_00000136381063177564962030000011746897169183499418_);stroke-width:0.1948;" d="
	M33.41,21.57c0.05,3.18-3.36,5.84-6.35,4.34c-0.36-0.18-0.5-0.02-0.69,0.17c-1.17,1.16-2.29,2.36-3.51,3.45
	c-0.77,0.69-1.41,1.49-2.16,2.19c-0.81,0.74-2.09,0.79-2.9,0.09c-0.85-0.72-1-1.9-0.39-2.86c0.52-0.82,1.26-1.43,1.96-2.08
	c1.33-1.23,2.57-2.55,3.88-3.8c0.28-0.26,0.3-0.47,0.17-0.84c-0.54-1.49-0.53-2.96,0.47-4.28c1.13-1.49,2.66-2.12,4.51-1.89
	c0.64,0.08,0.85,0.68,0.4,1.17c-0.54,0.6-1.13,1.15-1.7,1.73c-0.89,0.9-0.89,1.72-0.02,2.63c0.33,0.34,0.68,0.66,0.98,1.05
	c0.36,0.47,1.26,0.46,1.87,0.05c0.69-0.47,1.19-1.14,1.82-1.68c0.35-0.3,0.61-0.82,1.2-0.56C33.51,20.67,33.38,21.21,33.41,21.57z
	 M20.06,30.07c-0.05-0.48-0.31-0.8-0.81-0.8c-0.5,0-0.8,0.29-0.82,0.8c-0.02,0.56,0.3,0.86,0.83,0.85
	C19.78,30.92,20.02,30.58,20.06,30.07z"/>
</svg>
