<?xml version="1.0" encoding="utf-8"?>
<!-- Generator: Adobe Illustrator 26.5.0, SVG Export Plug-In . SVG Version: 6.00 Build 0)  -->
<svg version="1.1" id="Layer_2" xmlns="http://www.w3.org/2000/svg" xmlns:xlink="http://www.w3.org/1999/xlink" x="0px" y="0px"
	 width="47.28px" height="56.2px" viewBox="0 0 47.28 56.2" style="enable-background:new 0 0 47.28 56.2;" xml:space="preserve">
<style type="text/css">
	.st0{opacity:0.5;fill:#0C1A24;fill-opacity:0.9;stroke:url(#SVGID_1_);stroke-width:1.7408;}
	.st1{fill:#0C1A24;fill-opacity:0.9;stroke:url(#SVGID_00000057107779952003930600000003796222194646234036_);stroke-width:1.7408;}
	.st2{fill:none;stroke:url(#SVGID_00000129916428364216942520000003283724095236190366_);stroke-width:1.6385;}
</style>
<linearGradient id="SVGID_1_" gradientUnits="userSpaceOnUse" x1="33.8295" y1="3.166" x2="20.8583" y2="38.8041">
	<stop  offset="0" style="stop-color:#1FF2FF"/>
	<stop  offset="1" style="stop-color:#0E72BE"/>
</linearGradient>
<path class="st0" d="M45.69,23.24v-3.73c0-0.4-0.24-0.77-0.61-0.93l-3.52-1.51c-0.28-0.12-0.49-0.36-0.57-0.65l-0.54-1.91
	c-0.07-0.23-0.05-0.48,0.06-0.7l1.51-3.25c0.18-0.38,0.1-0.84-0.2-1.14l-2.66-2.66c-0.31-0.31-0.78-0.38-1.16-0.19l-3.24,1.62
	c-0.29,0.15-0.64,0.14-0.93-0.02L31.7,7.01c-0.21-0.11-0.37-0.3-0.46-0.52l-1.33-3.45c-0.15-0.39-0.52-0.65-0.94-0.65h-0.72h-2.09
	h-0.72c-0.42,0-0.79,0.26-0.94,0.65l-1.33,3.45c-0.09,0.22-0.25,0.41-0.46,0.52l-2.12,1.15c-0.29,0.16-0.64,0.16-0.93,0.02
	l-3.24-1.62c-0.39-0.19-0.86-0.12-1.16,0.19l-2.66,2.66c-0.3,0.3-0.38,0.75-0.2,1.14l1.51,3.25c0.1,0.22,0.12,0.47,0.06,0.7
	l-0.54,1.91c-0.08,0.29-0.29,0.53-0.57,0.65l-3.52,1.51c-0.37,0.16-0.61,0.52-0.61,0.93v3.73c0,0.44,0.28,0.82,0.7,0.96l3.37,1.09
	c0.27,0.09,0.49,0.29,0.61,0.54l0.82,1.82c0.12,0.27,0.12,0.58-0.01,0.85l-1.51,3.15c-0.18,0.37-0.11,0.82,0.17,1.12l2.53,2.71
	c0.3,0.32,0.78,0.41,1.18,0.22l3.27-1.61c0.26-0.13,0.57-0.14,0.84-0.02l1.71,0.72c0.25,0.11,0.45,0.31,0.54,0.56l1.35,3.41
	c0.15,0.39,0.52,0.64,0.94,0.64h0.94h2.09h0.94c0.41,0,0.79-0.25,0.94-0.64l1.35-3.41c0.1-0.25,0.3-0.45,0.54-0.56l1.71-0.72
	c0.27-0.11,0.57-0.11,0.84,0.02l3.27,1.61c0.4,0.2,0.88,0.11,1.18-0.22l2.53-2.71c0.28-0.3,0.35-0.75,0.17-1.12l-1.51-3.15
	c-0.13-0.27-0.13-0.58-0.01-0.85l0.82-1.82c0.12-0.26,0.34-0.46,0.61-0.54l3.37-1.09C45.41,24.06,45.69,23.67,45.69,23.24z"/>
<linearGradient id="SVGID_00000023278560982813905050000006332346287334292358_" gradientUnits="userSpaceOnUse" x1="26.2672" y1="10.7284" x2="13.2959" y2="46.3665">
	<stop  offset="0" style="stop-color:#1FF2FF"/>
	<stop  offset="1" style="stop-color:#0E72BE"/>
</linearGradient>
<path style="fill:#0C1A24;fill-opacity:0.9;stroke:url(#SVGID_00000023278560982813905050000006332346287334292358_);stroke-width:1.7408;" d="
	M38.13,30.8v-3.73c0-0.4-0.24-0.77-0.61-0.93l-3.52-1.51c-0.28-0.12-0.49-0.36-0.57-0.65l-0.54-1.91c-0.07-0.23-0.05-0.48,0.06-0.7
	l1.51-3.25c0.18-0.38,0.1-0.84-0.2-1.14l-2.66-2.66c-0.31-0.31-0.78-0.38-1.16-0.19l-3.24,1.62c-0.29,0.15-0.64,0.14-0.93-0.02
	l-2.12-1.15c-0.21-0.11-0.37-0.3-0.46-0.52l-1.33-3.45c-0.15-0.39-0.52-0.65-0.94-0.65h-0.72h-2.09h-0.72
	c-0.42,0-0.79,0.26-0.94,0.65l-1.33,3.45c-0.09,0.22-0.25,0.41-0.46,0.52l-2.12,1.15c-0.29,0.16-0.64,0.16-0.93,0.02l-3.24-1.62
	C8.47,13.93,8,14,7.69,14.31l-2.66,2.66c-0.3,0.3-0.38,0.75-0.2,1.14l1.51,3.25c0.1,0.22,0.12,0.47,0.06,0.7l-0.54,1.91
	c-0.08,0.29-0.29,0.53-0.57,0.65l-3.52,1.51c-0.37,0.16-0.61,0.52-0.61,0.93v3.73c0,0.44,0.28,0.82,0.7,0.96l3.37,1.09
	c0.27,0.09,0.49,0.29,0.61,0.54l0.82,1.82c0.12,0.27,0.12,0.58-0.01,0.85L5.13,39.2c-0.18,0.37-0.11,0.82,0.17,1.12l2.53,2.71
	c0.3,0.32,0.78,0.41,1.18,0.22l3.27-1.61c0.26-0.13,0.57-0.14,0.84-0.02l1.71,0.72c0.25,0.11,0.45,0.31,0.54,0.56l1.35,3.41
	c0.15,0.39,0.52,0.64,0.94,0.64h0.94h2.09h0.94c0.41,0,0.79-0.25,0.94-0.64l1.35-3.41c0.1-0.25,0.3-0.45,0.54-0.56l1.71-0.72
	c0.27-0.11,0.57-0.11,0.84,0.02l3.27,1.61c0.4,0.2,0.88,0.11,1.18-0.22l2.53-2.71c0.28-0.3,0.35-0.75,0.17-1.12l-1.51-3.15
	c-0.13-0.27-0.13-0.58-0.01-0.85l0.82-1.82c0.12-0.26,0.34-0.46,0.61-0.54l3.37-1.09C37.84,31.62,38.13,31.24,38.13,30.8z"/>
<linearGradient id="SVGID_00000073714453107497456960000015753222318611010974_" gradientUnits="userSpaceOnUse" x1="20.8107" y1="21.8208" x2="18.4707" y2="35.0915">
	<stop  offset="0" style="stop-color:#FFFFFF"/>
	<stop  offset="1" style="stop-color:#FFFFFF;stop-opacity:0.7"/>
</linearGradient>
<circle style="fill:none;stroke:url(#SVGID_00000073714453107497456960000015753222318611010974_);stroke-width:1.6385;" cx="19.64" cy="28.46" r="5.92"/>
</svg>
