<?xml version="1.0" encoding="utf-8"?>
<!-- Generator: Adobe Illustrator 26.5.0, SVG Export Plug-In . SVG Version: 6.00 Build 0)  -->
<svg version="1.1" xmlns="http://www.w3.org/2000/svg" xmlns:xlink="http://www.w3.org/1999/xlink" x="0px" y="0px" width="42px"
	 height="56.2px" viewBox="0 0 42 56.2" style="enable-background:new 0 0 42 56.2;" xml:space="preserve">
<style type="text/css">
	.st0{clip-path:url(#SVGID_00000124142636302029519300000004370265322872349066_);}
	.st1{opacity:0.5;}
	.st2{fill:#0C1A24;stroke:url(#SVGID_00000137828438527666176610000000461021174484096680_);stroke-width:1.931;}
	.st3{fill:#FFFFFF;}
	.st4{fill:#0C1A24;fill-opacity:0.9;stroke:url(#SVGID_00000099646044235339352370000002741068529099028639_);stroke-width:1.931;}
	
		.st5{fill:url(#SVGID_00000018946101941281483420000018281591430493991607_);stroke:url(#SVGID_00000073712539728019702610000015029783046504177848_);stroke-width:0.2897;}
</style>
<g id="Layer_1">
	<g>
		<g>
			<defs>
				<rect id="SVGID_1_" width="42" height="42"/>
			</defs>
			<clipPath id="SVGID_00000060023963615183289000000004559901778507798160_">
				<use xlink:href="#SVGID_1_"  style="overflow:visible;"/>
			</clipPath>
			<g style="clip-path:url(#SVGID_00000060023963615183289000000004559901778507798160_);">
				<g class="st1">
					
						<linearGradient id="SVGID_00000029752620044359291340000012225166825124127636_" gradientUnits="userSpaceOnUse" x1="31.6802" y1="569.6698" x2="15.3892" y2="602.497" gradientTransform="matrix(1 0 0 1 0 -566)">
						<stop  offset="0" style="stop-color:#1FC0FF"/>
						<stop  offset="1" style="stop-color:#0D80D8"/>
					</linearGradient>
					<path style="fill:#0C1A24;stroke:url(#SVGID_00000029752620044359291340000012225166825124127636_);stroke-width:1.931;" d="
						M14.19,1.42H36.2c2.39,0,4.32,1.93,4.32,4.32v22.01c0,2.39-1.93,4.32-4.32,4.32H14.19c-2.39,0-4.32-1.93-4.32-4.32V5.74
						C9.87,3.35,11.8,1.42,14.19,1.42z"/>
					<path class="st3" d="M21.96,23.97L16.2,18.2c-0.34-0.34-0.34-0.91,0-1.25l1.25-1.25c0.34-0.34,0.91-0.34,1.25,0l3.87,3.87
						l8.31-8.31c0.34-0.34,0.91-0.34,1.25,0l1.25,1.25c0.34,0.34,0.34,0.91,0,1.25L23.18,23.95C22.86,24.31,22.3,24.31,21.96,23.97
						L21.96,23.97z"/>
				</g>
				
					<linearGradient id="SVGID_00000118363272192435359730000001270957735088085679_" gradientUnits="userSpaceOnUse" x1="22.9909" y1="578.3596" x2="6.6999" y2="611.1868" gradientTransform="matrix(1 0 0 1 0 -566)">
					<stop  offset="0" style="stop-color:#1FF2FF"/>
					<stop  offset="1" style="stop-color:#0E72BE"/>
				</linearGradient>
				
					<path style="fill:#0C1A24;fill-opacity:0.9;stroke:url(#SVGID_00000118363272192435359730000001270957735088085679_);stroke-width:1.931;" d="
					M5.5,10.11h22.01c2.39,0,4.32,1.93,4.32,4.32v22.01c0,2.39-1.93,4.32-4.32,4.32H5.5c-2.39,0-4.32-1.93-4.32-4.32V14.42
					C1.18,12.04,3.11,10.11,5.5,10.11z"/>
				
					<linearGradient id="SVGID_00000132088884044997707180000015718663626349446558_" gradientUnits="userSpaceOnUse" x1="27.927" y1="577.7808" x2="2.8237" y2="603.8495" gradientTransform="matrix(1 0 0 1 0 -566)">
					<stop  offset="0.4932" style="stop-color:#FFFFFF"/>
					<stop  offset="1" style="stop-color:#FFFFFF;stop-opacity:0"/>
				</linearGradient>
				
					<linearGradient id="SVGID_00000060734705702091740710000005856807453356630972_" gradientUnits="userSpaceOnUse" x1="10.3387" y1="593.9202" x2="15.1662" y2="592.9547" gradientTransform="matrix(1 0 0 1 0 -566)">
					<stop  offset="0" style="stop-color:#FFFFFF"/>
					<stop  offset="1" style="stop-color:#FFFFFF;stop-opacity:0"/>
				</linearGradient>
				
					<path style="fill:url(#SVGID_00000132088884044997707180000015718663626349446558_);stroke:url(#SVGID_00000060734705702091740710000005856807453356630972_);stroke-width:0.2897;" d="
					M7.4,25.54L7.4,25.54C7,25.95,7,26.59,7.4,27l5.76,5.76c0.41,0.41,1.05,0.41,1.46,0l0,0l10.19-10.18l-0.1-0.1l0.1,0.1
					c0.41-0.41,0.41-1.05,0-1.46l-1.25-1.25l-0.1,0.1l0.1-0.1c-0.41-0.41-1.05-0.41-1.46,0l-8.2,8.2l-3.78-3.78l0,0
					c-0.41-0.41-1.05-0.41-1.46,0l0,0L7.4,25.54z"/>
			</g>
		</g>
	</g>
</g>
<g id="Layer_2">
</g>
</svg>
