<?xml version="1.0" encoding="utf-8"?>
<!-- Generator: Adobe Illustrator 26.5.0, SVG Export Plug-In . SVG Version: 6.00 Build 0)  -->
<svg version="1.1" id="Layer_2" xmlns="http://www.w3.org/2000/svg" xmlns:xlink="http://www.w3.org/1999/xlink" x="0px" y="0px"
	 width="59.47px" height="56.2px" viewBox="0 0 59.47 56.2" style="enable-background:new 0 0 59.47 56.2;" xml:space="preserve">
<style type="text/css">
	.st0{opacity:0.28;fill:#0C1A24;fill-opacity:0.9;stroke:url(#SVGID_1_);stroke-width:1.9583;}
	
		.st1{opacity:0.65;fill:#0C1A24;fill-opacity:0.9;stroke:url(#SVGID_00000156555495743985056390000005828641179799617715_);stroke-width:1.9583;}
	.st2{fill:#0C1A24;fill-opacity:0.9;stroke:url(#SVGID_00000097467906358637195210000002341325267622294189_);stroke-width:1.9583;}
	
		.st3{fill:none;stroke:url(#SVGID_00000118364097607527838370000005511955813447583637_);stroke-width:1.9687;stroke-linecap:round;stroke-linejoin:round;}
	
		.st4{fill:none;stroke:url(#SVGID_00000150060931962369363580000007543239446876261044_);stroke-width:1.9687;stroke-linecap:round;stroke-linejoin:round;}
</style>
<linearGradient id="SVGID_1_" gradientUnits="userSpaceOnUse" x1="-195.2664" y1="-250.1177" x2="-211.3669" y2="-282.5611" gradientTransform="matrix(0.866 -0.5 -1 -0.5774 -58.8925 -218.1933)">
	<stop  offset="0" style="stop-color:#1FF2FF"/>
	<stop  offset="1" style="stop-color:#0E72BE"/>
</linearGradient>
<path class="st0" d="M4.65,32.21L25.5,20.17c2.26-1.3,5.91-1.31,8.15-0.02l20.7,11.95c2.24,1.29,2.23,3.4-0.03,4.71L33.47,48.85
	c-2.26,1.3-5.91,1.31-8.15,0.02L4.62,36.91C2.38,35.62,2.39,33.51,4.65,32.21z"/>
<linearGradient id="SVGID_00000033356232418949178980000007867731030433941936_" gradientUnits="userSpaceOnUse" x1="-186.8925" y1="-242.8657" x2="-202.993" y2="-275.3091" gradientTransform="matrix(0.866 -0.5 -1 -0.5774 -58.8925 -218.1933)">
	<stop  offset="0" style="stop-color:#1FF2FF"/>
	<stop  offset="1" style="stop-color:#0E72BE"/>
</linearGradient>
<path style="opacity:0.65;fill:#0C1A24;fill-opacity:0.9;stroke:url(#SVGID_00000033356232418949178980000007867731030433941936_);stroke-width:1.9583;" d="
	M4.65,23.84L25.5,11.8c2.26-1.3,5.91-1.31,8.15-0.02l20.7,11.95c2.24,1.29,2.23,3.4-0.03,4.71L33.47,40.48
	c-2.26,1.3-5.91,1.31-8.15,0.02L4.62,28.54C2.38,27.25,2.39,25.14,4.65,23.84z"/>
<linearGradient id="SVGID_00000158739212589789433430000008016075003463286435_" gradientUnits="userSpaceOnUse" x1="-178.2721" y1="-235.4003" x2="-194.3726" y2="-267.8436" gradientTransform="matrix(0.866 -0.5 -1 -0.5774 -58.8925 -218.1933)">
	<stop  offset="0" style="stop-color:#1FF2FF"/>
	<stop  offset="1" style="stop-color:#0E72BE"/>
</linearGradient>
<path style="fill:#0C1A24;fill-opacity:0.9;stroke:url(#SVGID_00000158739212589789433430000008016075003463286435_);stroke-width:1.9583;" d="
	M4.65,15.21L25.5,3.18c2.26-1.3,5.91-1.31,8.15-0.02l20.7,11.95c2.24,1.29,2.23,3.4-0.03,4.71L33.47,31.86
	c-2.26,1.3-5.91,1.31-8.15,0.02L4.62,19.92C2.38,18.63,2.39,16.52,4.65,15.21z"/>
<linearGradient id="SVGID_00000042733077697108277150000000216202699958120587_" gradientUnits="userSpaceOnUse" x1="-196.3584" y1="283.9308" x2="-190.2049" y2="289.2599" gradientTransform="matrix(0.866 -0.5 1 0.5774 -102.8948 -243.5954)">
	<stop  offset="0.0502" style="stop-color:#FFFFFF"/>
	<stop  offset="1" style="stop-color:#FFFFFF;stop-opacity:0.7"/>
</linearGradient>
<polyline style="fill:none;stroke:url(#SVGID_00000042733077697108277150000000216202699958120587_);stroke-width:1.9687;stroke-linecap:round;stroke-linejoin:round;" points="
	10.37,17.22 19.09,15.78 17.34,21.24 "/>
<linearGradient id="SVGID_00000061458513807003238960000008196498292410381703_" gradientUnits="userSpaceOnUse" x1="-185.4769" y1="290.4521" x2="-179.2023" y2="295.886" gradientTransform="matrix(0.866 -0.5 1 0.5774 -102.8948 -243.5954)">
	<stop  offset="0.0502" style="stop-color:#FFFFFF"/>
	<stop  offset="1" style="stop-color:#FFFFFF;stop-opacity:0.7"/>
</linearGradient>
<line style="fill:none;stroke:url(#SVGID_00000061458513807003238960000008196498292410381703_);stroke-width:1.9687;stroke-linecap:round;stroke-linejoin:round;" x1="27.19" y1="19.19" x2="35.33" y2="14.48"/>
</svg>
