<?xml version="1.0" encoding="utf-8"?>
<!-- Generator: Adobe Illustrator 26.5.0, SVG Export Plug-In . SVG Version: 6.00 Build 0)  -->
<svg version="1.1" id="Layer_1" xmlns="http://www.w3.org/2000/svg" xmlns:xlink="http://www.w3.org/1999/xlink" x="0px" y="0px"
	 viewBox="0 0 129.91 29.14" style="enable-background:new 0 0 129.91 29.14;" xml:space="preserve">
<style type="text/css">
	.st0{fill:#718BA6;}
</style>
<path class="st0" d="M20.65,0c0.19,0.24,0.47,0.13,0.71,0.18c3.57,0.78,5.92,3.91,5.68,7.6c-0.09,1.32-0.35,2.61-0.87,3.87
	c-0.55-0.55-1.09-1.06-1.6-1.59c-0.19-0.2-0.04-0.45,0.02-0.67c0.36-1.55,0.43-3.08-0.32-4.55c-1-1.97-3.19-2.98-5.33-2.43
	c-2.41,0.62-4.05,2.23-5.31,4.25c-2.14,3.44-2.46,7.16-1.5,11.03c0.12,0.48,0.06,0.62-0.45,0.66c-1.65,0.14-1.68,0.17-1.96-1.44
	C8.74,11.57,9.95,6.83,13.84,2.92C15.29,1.45,17,0.4,19.11,0.12c0.05-0.01,0.09-0.08,0.13-0.12C19.71,0,20.18,0,20.65,0z"/>
<path class="st0" d="M0,14.61c0.04-0.04,0.11-0.08,0.11-0.13c0.39-3.59,2.69-5.5,5.87-6.61c0.64-0.22,1.3-0.39,2.03-0.42
	c-0.2,0.74-0.4,1.43-0.58,2.13C7.37,9.85,7.14,9.84,6.95,9.9c-1.26,0.38-2.45,0.91-3.36,1.9c-1.99,2.18-1.7,5.21,0.66,7.09
	c1.53,1.21,3.31,1.75,5.22,1.87c4.22,0.27,7.76-1.28,10.76-4.17c0.4-0.38,0.57-0.4,0.87,0.07c1.07,1.69,1.09,1.16-0.3,2.37
	c-2.96,2.57-6.39,4-10.34,3.97c-3.14-0.02-6.04-0.81-8.35-3.12c-0.99-0.99-1.63-2.18-1.93-3.55C0.15,16.14,0.23,15.89,0,15.76
	C0,15.38,0,15,0,14.61z"/>
<path class="st0" d="M129.91,17.05c-2.91,0.01-5.81,0.02-8.72,0.02c-0.78,0-0.79,0.02-0.52,0.78c0.59,1.66,2.22,2.65,4.15,2.57
	c1.11-0.05,2.1-0.37,2.91-1.14c0.23-0.22,0.38-0.22,0.55,0.04c0.08,0.12,0.19,0.23,0.29,0.34c0.7,0.82,0.7,0.82-0.15,1.47
	c-2.35,1.81-6.53,1.48-8.54-0.67c-2.03-2.18-2.09-5.91-0.07-8.14c1.6-1.76,3.65-2.21,5.9-1.68c2.1,0.49,3.38,1.87,3.97,3.93
	c0.05,0.19-0.01,0.44,0.22,0.55C129.91,15.76,129.91,16.41,129.91,17.05z M124.2,15.53c1.09,0,2.17-0.01,3.26,0.01
	c0.29,0,0.42-0.04,0.35-0.38c-0.32-1.68-1.83-2.89-3.63-2.91c-1.74-0.01-3.24,1.14-3.62,2.76c-0.1,0.41-0.01,0.55,0.44,0.54
	C122.07,15.5,123.14,15.53,124.2,15.53z"/>
<path class="st0" d="M48.03,17.44c0,0.85,0,1.71,0,2.56c0,0.25-0.03,0.45-0.25,0.61c-3.33,2.54-9.98,2.67-12.7-2.16
	c-2.51-4.44-0.44-10.82,5.83-11.69c2.4-0.33,4.63,0.06,6.58,1.6c0.03,0.03,0.07,0.05,0.1,0.08c0.64,0.55,0.64,0.55,0.06,1.13
	c-0.78,0.78-0.79,0.79-1.7,0.14c-3.05-2.18-8.75-1.15-9.61,3.8c-0.68,3.95,2.75,7.38,6.86,6.79c0.23-0.03,0.47-0.06,0.7-0.11
	c1.84-0.39,2.01-0.6,2.01-2.45c0-0.96,0.01-1.92-0.01-2.88c-0.01-0.34,0.06-0.48,0.45-0.48c1.68-0.04,1.68-0.05,1.68,1.63
	C48.03,16.5,48.03,16.97,48.03,17.44z"/>
<path class="st0" d="M27.46,21.53c0.07,2.47-0.69,4.6-2.68,6.13c-2.42,1.86-5.59,1.95-8.22,0.34c-1.09-0.66-1.99-1.53-2.86-2.45
	c-0.34-0.35-0.13-0.44,0.19-0.51c0.52-0.13,1.04-0.24,1.55-0.4c0.37-0.12,0.55,0.12,0.76,0.33c1.07,1.09,2.35,1.75,3.86,1.95
	c2.28,0.3,4.27-1.32,4.83-2.9c0.75-2.13,0.45-4.21-0.41-6.22c-1.72-4.02-4.84-6.43-8.95-7.69c-0.91-0.28-0.93-0.29-0.51-1.16
	c0.57-1.18,0.57-1.19,1.82-0.74c4.15,1.48,7.4,4.01,9.35,8.04C26.99,17.9,27.5,19.65,27.46,21.53z"/>
<path class="st0" d="M69.57,17.07c-1.41,0-2.82,0.02-4.23-0.01c-0.44-0.01-0.49,0.13-0.39,0.51c0.48,1.8,2.24,2.98,4.26,2.86
	c1.1-0.07,2.1-0.37,2.9-1.16c0.24-0.24,0.37-0.19,0.54,0.05c0.07,0.11,0.17,0.19,0.25,0.29c0.76,0.88,0.76,0.88-0.15,1.56
	c-2.67,2.02-8.67,1.6-9.85-3.27c-0.83-3.4,1.03-6.56,4.34-7.32c3.84-0.88,7.29,2.01,7.07,5.93c-0.02,0.39-0.1,0.59-0.57,0.57
	C72.34,17.04,70.96,17.07,69.57,17.07z M68.5,15.53c1.09,0,2.18-0.02,3.27,0.01c0.46,0.01,0.48-0.17,0.39-0.52
	c-0.41-1.65-1.88-2.78-3.62-2.76c-1.77,0.02-3.18,1.14-3.6,2.8c-0.11,0.45,0.05,0.49,0.43,0.48C66.41,15.51,67.46,15.53,68.5,15.53z
	"/>
<path class="st0" d="M107.64,12.2c1.77-1.78,3.75-2.05,5.88-1.52c1.93,0.48,3.08,2.17,3.12,4.48c0.03,2.18,0,4.36,0.02,6.54
	c0,0.4-0.1,0.54-0.5,0.49c-0.52-0.06-1.22,0.22-1.53-0.11c-0.26-0.28-0.09-0.97-0.1-1.47c-0.01-1.6-0.01-3.2,0-4.81
	c0-0.56-0.06-1.11-0.25-1.63c-0.36-0.99-1.07-1.57-2.11-1.73c-2.67-0.4-4.4,1.08-4.41,3.78c-0.01,1.82-0.02,3.63,0.01,5.45
	c0.01,0.42-0.11,0.57-0.53,0.52c-0.52-0.06-1.22,0.23-1.53-0.12c-0.26-0.29-0.09-0.97-0.1-1.48c0-3.14,0.01-6.28-0.01-9.42
	c0-0.49,0.1-0.73,0.62-0.63c0.47,0.08,1.1-0.24,1.38,0.15C107.81,10.99,107.64,11.57,107.64,12.2z"/>
<path class="st0" d="M58.99,20.53c-1.65,1.77-3.54,2.08-5.62,1.57c-1.86-0.46-3.02-1.83-3.23-3.76c-0.23-2.23-0.06-4.48-0.1-6.72
	c-0.02-1.05,0-1.05,1.03-1.05c1.13,0,1.13,0,1.13,1.12c0,1.73,0,3.46,0,5.19c0,2.23,1,3.46,2.85,3.5c2.34,0.05,3.76-1.23,3.81-3.51
	c0.04-1.9,0.02-3.8,0-5.7c-0.01-0.45,0.06-0.63,0.58-0.62c1.55,0.03,1.55,0,1.55,1.57c0.01,3.16,0.02,6.32,0.05,9.47
	c0.01,0.49-0.12,0.65-0.6,0.59c-0.48-0.06-1.12,0.21-1.4-0.12C58.8,21.79,58.99,21.17,58.99,20.53z"/>
<path class="st0" d="M80.36,22.31c-1.5-0.04-2.95-0.32-4.3-1.05c-0.36-0.19-0.52-0.38-0.25-0.78c0.24-0.35,0.33-0.89,0.64-1.08
	c0.35-0.21,0.72,0.28,1.1,0.43c1.47,0.57,2.96,0.79,4.51,0.43c0.32-0.07,0.61-0.21,0.84-0.43c0.67-0.64,0.46-1.64-0.45-2.02
	c-0.91-0.39-1.91-0.44-2.87-0.63c-0.56-0.11-1.13-0.23-1.66-0.44c-1.09-0.43-1.82-1.16-1.94-2.39c-0.12-1.28,0.32-2.31,1.4-3.02
	c0.89-0.6,1.91-0.81,2.97-0.86c1.45-0.07,2.85,0.16,4.18,0.74c0.38,0.17,0.61,0.34,0.28,0.78c-0.25,0.34-0.33,0.89-0.65,1.07
	c-0.34,0.2-0.73-0.28-1.13-0.41c-1.16-0.38-2.33-0.49-3.53-0.22c-0.23,0.05-0.45,0.14-0.65,0.25c-0.47,0.26-0.79,0.64-0.77,1.23
	c0.02,0.57,0.37,0.88,0.84,1.1c0.83,0.38,1.73,0.46,2.6,0.63c0.75,0.15,1.5,0.31,2.21,0.61c2.2,0.92,2.07,3.79,0.6,4.92
	C83.17,22.08,81.8,22.28,80.36,22.31z"/>
<path class="st0" d="M89.1,15.97c0-1.07-0.01-2.13,0.01-3.2c0.01-0.36-0.08-0.5-0.46-0.47c-0.32,0.03-0.65-0.03-0.96,0.01
	c-0.54,0.08-0.62-0.17-0.61-0.64c0.03-1.1,0.01-1.1,1.11-1.1c0.91,0,0.91,0,0.91-0.91c0-0.02,0-0.04,0-0.06c0-1.69,0-1.68,1.7-1.59
	c0.3,0.02,0.41,0.1,0.4,0.4c-0.02,0.55,0.02,1.11-0.01,1.66c-0.02,0.39,0.09,0.53,0.5,0.51c0.81-0.03,1.62,0,2.43-0.01
	c0.29,0,0.41,0.06,0.42,0.38c0.07,1.36,0.08,1.34-1.28,1.36c-0.67,0.01-1.58-0.3-1.96,0.13c-0.33,0.37-0.1,1.26-0.1,1.91
	c-0.01,1.32-0.01,2.65,0,3.97c0.01,1.87,1.35,2.72,3.01,1.88c0.43-0.22,0.54-0.13,0.7,0.26c0.49,1.17,0.45,1.29-0.77,1.65
	c-0.92,0.27-1.85,0.27-2.78,0c-1.33-0.4-2.16-1.44-2.23-2.88c-0.05-1.09-0.01-2.18-0.01-3.26C89.12,15.97,89.11,15.97,89.1,15.97z"
	/>
<path class="st0" d="M99.11,14.03c0,2.54-0.01,5.08,0.01,7.61c0,0.39-0.06,0.59-0.51,0.54c-0.53-0.05-1.22,0.17-1.55-0.09
	c-0.35-0.28-0.11-1-0.11-1.52c-0.01-4.67,0-9.34-0.02-14.01c0-0.54,0.13-0.67,0.66-0.66c1.51,0.04,1.51,0.01,1.51,1.54
	C99.11,9.63,99.11,11.83,99.11,14.03z"/>
<path class="st0" d="M101.31,16.34c0-1.77,0.01-3.54-0.01-5.31c0-0.38,0.07-0.51,0.49-0.51c1.64-0.01,1.64-0.02,1.64,1.6
	c0,3.16-0.01,6.32,0.01,9.48c0,0.48-0.12,0.64-0.6,0.59c-0.48-0.05-1.14,0.16-1.42-0.09c-0.34-0.29-0.1-0.96-0.11-1.46
	C101.3,19.2,101.31,17.77,101.31,16.34z"/>
<path class="st0" d="M102.42,5.62c0.82,0.02,1.39,0.57,1.4,1.34c0,0.82-0.62,1.42-1.48,1.4c-0.82-0.02-1.43-0.63-1.4-1.41
	C100.96,6.15,101.58,5.6,102.42,5.62z"/>
</svg>
