<?xml version="1.0" encoding="utf-8"?>
<!-- Generator: Adobe Illustrator 26.5.0, SVG Export Plug-In . SVG Version: 6.00 Build 0)  -->
<svg version="1.1" id="Layer_1" xmlns="http://www.w3.org/2000/svg" xmlns:xlink="http://www.w3.org/1999/xlink" x="0px" y="0px"
	 viewBox="0 0 879.41 180.34" style="enable-background:new 0 0 879.41 180.34;" xml:space="preserve">
<style type="text/css">
	.st0{fill:#718BA6;}
</style>
<path class="st0" d="M644.87,76.24c-8.11,0-16.3,0-24.91,0c-0.56-5.36-0.54-10.02,0.01-14.95c17.65,0,34.7,0,51.58,0
	c3.61,7.7,1.66,17.48-4.18,22.72c-6.89,6.17-13.71,12.41-20.41,19.21c8.71,1.5,17.41,0.45,26.04,1.16c1.71,4.03,0.1,8.13,1.96,12.23
	c6.52-18.35,13.05-36.7,19.64-55.26c10.74,0,21.11,0,31.75,0c6.92,19.37,13.75,38.47,20.82,58.25c-7.99,0-15.35,0-23.23,0
	c-3.34-2.75-1.93-8.26-5.75-12.21c-5.41,0.01-11.46-0.58-17.65,0.49c-1.28,3.95-2.5,7.69-3.83,11.81c-25.68,0-51.32,0-77.33,0
	c-0.68-5.76-0.58-11.21-0.15-16.61c0.23-2.83,3.05-4.23,4.96-5.99c6.11-5.61,12.36-11.08,18.52-16.64
	C643.73,79.5,645.26,78.78,644.87,76.24z M710.32,76.52c-3.61,4.88-4.74,10.46-6.32,16.16c4.11,1.31,7.7,1.69,11.74-0.1
	C715.05,86.77,712.5,81.79,710.32,76.52z"/>
<path class="st0" d="M816.04,120.29c0-19.98,0-39.64,0-58.93c0.55-0.47,0.68-0.67,0.8-0.67c15.25-0.27,30.58-2.04,45.68,1.44
	c5.91,1.37,10.68,4.9,13.04,10.62c4.89,11.87,5.54,23.88-0.52,35.58c-3.74,7.21-10.23,10.71-18.08,11.7
	c-12.76,1.61-25.59,0.51-38.38,0.75C817.94,120.8,817.3,120.55,816.04,120.29z M839.61,104.56c8.95,1.59,13.43-1.12,14.45-8.67
	c0.55-4.07,0.7-8.26-0.33-12.37c-1.91-7.61-5.77-9.86-14.11-7.63C839.21,85.28,839.25,94.82,839.61,104.56z"/>
<path class="st0" d="M176.87,62.06c2.02-1.41,3.56-1.15,5.04-1.15c10.98-0.02,21.95,0.02,32.93-0.03c3.52-0.01,7.05,0.38,10.34,1.37
	c5.88,1.78,10.15,5.55,11.09,11.98c0.94,6.51-0.36,12.24-6.62,15.84c-0.85,0.49-1.63,1.12-2.38,1.75c-0.21,0.18-0.22,0.59-0.33,0.89
	c6.66,6.75,9.57,14.2,10.45,27.13c-7.72,0-15.42,0-23.11,0c-2.21-3.4-1.78-7.15-2.26-10.72c-0.91-6.82-4.07-8.93-11.46-7.32
	c-1.19,5.68,0.07,11.69-0.86,18.27c-7.5,0.18-14.98,0.46-22.83-0.27C176.87,100.23,176.87,81.09,176.87,62.06z M199.56,85.77
	c3.41,1.17,6.52,0.88,9.6,0.37c2.26-0.37,3.32-2.09,3.67-4.18c0.34-2.04,0.17-4.25-1.73-5.36c-3.61-2.1-7.48-3.08-11.7-1.37
	C198.99,78.85,198.79,82.1,199.56,85.77z"/>
<path class="st0" d="M49.63,93.19c9.48,6.24,8.36,16.72,11.01,26.87c-8.41,0.18-16.05,0.48-23.88-0.24
	c-0.83-4.45-1.61-8.5-2.35-12.56c-1.09-5.96-5.2-7.97-11.45-5.1c0,5.5,0,11.27,0,17.54c-7.85,0-15.18,0-22.96,0
	c0-19.42,0-38.71,0-57.72c0.7-0.47,0.97-0.82,1.24-0.82c14.78-0.09,29.6-1.29,44.33,0.73c7.65,1.05,12.5,5.57,13.88,12.33
	c1.02,4.95-0.33,12.33-7.75,16.34C50.95,90.97,50.33,91.48,49.63,93.19z M22.3,86.02c3.85,1.79,7.65,1.18,11.16-0.26
	c3.49-1.43,3.84-7.91,0.48-9.56c-3.66-1.8-7.67-2.95-11.92-1.25C21.57,78.8,21.18,82.37,22.3,86.02z"/>
<path class="st0" d="M280.58,61.21c6.62,0,13.52,0,20.36,0c1.47,1.68,0.99,3.58,1,5.35c0.05,9.46-0.21,18.93,0.07,28.38
	c0.47,15.98-6.83,24.44-22.83,26.16c-8.04,0.86-16.26,0.93-23.95-2.73c-7.78-3.69-12.24-9.99-12.63-18.29
	c-0.56-12.09-0.14-24.22-0.1-36.34c0-0.62,0.33-1.24,0.64-2.31c7.34-1.07,14.7-0.37,21.75-0.44c1.51,2.1,1.07,3.98,1.08,5.76
	c0.04,9.79,0.03,19.58,0.01,29.38c0,2.02,0.09,3.98,1.31,5.71c1.54,2.19,3.5,3.67,6.3,3.07c2.6-0.55,4.39-1.92,4.81-4.93
	c0.36-2.62,0.92-5.18,0.89-7.86c-0.08-8.46-0.05-16.93-0.01-25.39C279.31,64.95,278.83,63.03,280.58,61.21z"/>
<path class="st0" d="M64.91,62.44c1.37-1.71,2.96-2.06,4.68-2.05c14.8,0.03,29.6,0.06,44.4,0.11c0.3,0,0.61,0.23,1.46,0.58
	c1.41,4.52,0.57,9.38,0.46,14.9c-9.24,0-18.14,0-26.75,0c-1.59,2.69-1.48,4.66,0.23,7.22c6.27,0,12.89-0.01,19.5,0
	c6.55,0.01,6.81,0.22,6.76,6.68c-0.02,2.46,0.46,4.96-0.62,7.91c-8.48,1.32-17.29-0.16-25.81,0.78c-1.78,1.96-1.22,3.8-0.72,5.54
	c2.39,1.66,4.79,0.96,7.04,1c5.65,0.1,11.31-0.02,16.96,0.05c4.45,0.05,5.16,0.76,5.14,5.29c-0.02,2.94,0.5,5.94-0.57,9.29
	c-17.3,0-34.58,0-52.16,0C64.91,100.35,64.91,81.48,64.91,62.44z"/>
<path class="st0" d="M810.46,119.73c-8.21,0-15.28,0-22.48,0c-1.65-1.04-1.99-2.81-2.17-4.66c-0.2-1.98-0.34-3.97-0.67-5.94
	c-1.15-6.96-3.65-10.8-12.58-8.14c-1.37,5.84,0.22,12.03-1.03,18.87c-7.06,0.49-14.23,0.25-21.85,0.12c0-19.8,0-39.06,0-58.02
	c0.78-0.48,1.06-0.8,1.35-0.8c15.1,0.04,30.25-1.36,45.29,0.92c7.31,1.11,11.81,5.65,12.76,12.08c1.05,7.07-1.61,12.35-8.17,16
	c-1.22,0.68-2.11,1.5-3.02,2.87C809.06,98.54,807.23,109.63,810.46,119.73z M771.94,86.24c3.12,0.41,6.08,0.49,9.01,0.02
	c3.02-0.48,4.6-2.5,4.84-5.48c0.23-2.84-1.1-4.7-3.79-5.7c-3.23-1.2-6.45-1-10.1-0.41C771.31,78.55,771.15,82.22,771.94,86.24z"/>
<path class="st0" d="M399.04,61.06c1.11,4.37,1.12,13.51-0.1,18.34c-5.91,0-11.99,0-18.79,0c0,13.72,0,26.9,0,40.45
	c-8.11,0-15.49,0-23.65,0c0-13.22,0-26.22,0-39.43c-6.44-1.99-12.51-0.17-18.76-1.43c-1.03-5.3-0.59-10.58-0.34-15.8
	c0.12-2.49,2.35-2.84,4.52-2.81c4.66,0.05,9.31,0.02,13.97,0.02c12.47,0,24.95-0.02,37.42,0.02C395.11,60.4,396.97,60,399.04,61.06z
	"/>
<path class="st0" d="M172.08,103.02c1.1,5.05,0.71,9.8,0.39,14.52c-0.08,1.2-1.06,2.12-2.31,2.34c-13.52,2.44-26.93,3.12-38.67-5.65
	c-9.94-7.43-12.64-18.14-10.75-29.77c1.9-11.73,9.64-18.95,20.8-22.44c9.92-3.11,19.9-2.84,30.26-0.06
	c0.44,5.47,0.47,10.65-0.06,16.35c-4.64-1.13-8.75-2.48-13.11-2c-3.89,0.42-7.54,1.42-10.21,4.44c-4.79,5.42-5.45,10.64-2.27,16.47
	c2.64,4.85,9.22,8.11,15.26,7.42C164.7,104.27,167.95,103.66,172.08,103.02z"/>
<path class="st0" d="M589.95,60.46c7.89,0,15.17,0,22.93,0c0,20,0,39.77,0,59.97c-7.64,0-15.02,0-22.93,0
	C589.95,100.48,589.95,80.7,589.95,60.46z"/>
<path class="st0" d="M310.24,120.1c0-19.74,0-39.05,0-58.78c7.52,0,14.86,0,22.7,0c0,19.45,0,38.58,0,58.3
	C325.6,120.83,318.09,120.06,310.24,120.1z"/>
<path class="st0" d="M612.81,56.48c-3.56-1.8-6.76-3.41-9.73-4.91c-4.19,0.55-7.15,3.23-10.66,4.49c-2.2-1.35-1.51-3.44-1.03-4.97
	c1.68-5.37-0.19-9.32-4.28-12.68c-1.11-0.92-2.16-1.99-2.84-3.73c4.12-1.25,8.31-1.39,11.95-2.89c2.76-2.83,2.65-7.27,6.11-9.77
	c3.12,2.69,3.42,6.93,6.14,9.74c3.33,1.61,7.26,1.53,10.9,2.91c0.28,3.18-2.26,4.44-3.93,6.04c-2.47,2.37-3.95,4.59-2.53,8.25
	C613.69,51,613.96,53.47,612.81,56.48z"/>
<path class="st0" d="M496.23,0.01c-50.01-0.69-91.94,39.16-92.03,90.15c-0.09,51.83,42.73,91.7,90.7,90.14
	c48.04,1.54,90.28-39.12,90.48-89.32C585.59,39.53,543.72,0.66,496.23,0.01z M550.4,59.32c-2.97,17.36-5.74,34.49-8.99,51.5
	c-0.54,2.83-1.1,5.67-1.67,8.5c0.08,2.45,0.26,4.91-0.9,7.21c0.13,1.29,0.45,2.59-0.15,4.05c-0.08,0.21-0.19,0.42-0.31,0.64
	c-29.13,0-58.43,0-87.5,0c-0.69-0.82-0.92-1.6-0.93-2.35c-0.02-0.63,0.11-1.24,0.25-1.85c0.03-0.12,0.05-0.24,0.08-0.36h0
	c-0.84-2.35-0.7-4.8-0.69-7.24c-2.77-10.6-3.68-21.54-5.75-32.28c-2.01-10.41-3.6-20.9-5.36-31.36c-0.07-0.4-0.16-0.8-0.23-1.21
	c-0.23-1.23-0.32-2.55,0.78-4.16c6.18-0.09,12.74-0.31,19.7,0.21c2.91,14.72,3.81,29.57,7.2,43.96c0.01,0.03,0.01,0.07,0.02,0.1
	c0.34,0.02,0.68,0.04,1.02,0.06c4.41-14.61,8.81-29.21,13.32-44.14c4.81-0.22,9.55-0.32,14.27-0.32c4.72,0,9.4,0.1,14.09,0.29
	c5.79,14.81,9.41,29.95,15.3,44.27c0.35-0.04,0.71-0.09,1.06-0.13c2.27-14.59,4.54-29.19,6.88-44.2c3.35-0.13,6.58-0.22,9.86-0.21
	c2.46,0,4.95,0.05,7.54,0.18c0.86,0.04,1.74,0.09,2.63,0.15C551.4,53.53,550.9,56.43,550.4,59.32z"/>
<path class="st0" d="M539.74,119.32c-9.11,0-18.22,0-27.82,0c-5.69-18.85-11.2-37.08-16.71-55.32c-0.47-0.05-0.94-0.09-1.41-0.14
	c-7.15,17.95-11.13,37.04-18.22,54.86c-9.08,0.85-17.57-0.35-26,0.7c-0.01,2.44-0.15,4.89,0.69,7.24
	c29.52-0.04,59.05-0.09,88.57-0.13C540,124.24,539.82,121.77,539.74,119.32z M500.56,106.59c0.03,2.28-1.38,4.15-1.45,6.26
	c-0.02,0.7,0.1,1.43,0.48,2.21c0,0,0,0,0,0c0,0,0,0.01,0,0.01c-3.51,0.24-6.39-1.31-9.28,0.68c-0.48-2.76-0.63-5.25-2.33-7.36
	c-0.24-0.3-0.51-0.59-0.82-0.88c0.41-0.17,0.82-0.34,1.2-0.52c2.7-1.22,4.72-2.63,6.24-5.46c0.14,0.41,0.29,0.79,0.45,1.14
	c0,0,0,0.01,0,0.01c0.09,0.18,0.19,0.34,0.28,0.5c0.09,0.16,0.17,0.33,0.27,0.48c0.12,0.18,0.25,0.33,0.38,0.5
	c0.08,0.1,0.16,0.22,0.24,0.32C497.34,105.72,498.8,106.35,500.56,106.59C500.56,106.58,500.56,106.59,500.56,106.59
	C500.56,106.59,500.56,106.59,500.56,106.59z"/>
</svg>
