<?xml version="1.0" encoding="utf-8"?>
<!-- Generator: Adobe Illustrator 26.5.0, SVG Export Plug-In . SVG Version: 6.00 Build 0)  -->
<svg version="1.1" id="Layer_1" xmlns="http://www.w3.org/2000/svg" xmlns:xlink="http://www.w3.org/1999/xlink" x="0px" y="0px"
	 viewBox="0 0 311.01 254.98" style="enable-background:new 0 0 311.01 254.98;" xml:space="preserve">
<style type="text/css">
	.st0{opacity:0.9;clip-path:url(#SVGID_00000152252155300462451110000014934595365276943788_);}
	.st1{fill:#7C98B4;}
	.st2{fill:#557999;}
	.st3{fill:#FB3E23;}
	.st4{fill:#0A1821;}
	.st5{fill:#0A1822;}
	.st6{fill:#FFFFFF;}
	.st7{fill:#0C3E91;}
</style>
<g>
	<defs>
		<rect id="SVGID_1_" y="0" width="311" height="254.98"/>
	</defs>
	<clipPath id="SVGID_00000013164698696920297010000002512845823392806273_">
		<use xlink:href="#SVGID_1_"  style="overflow:visible;"/>
	</clipPath>
	<g style="opacity:0.9;clip-path:url(#SVGID_00000013164698696920297010000002512845823392806273_);">
		<path class="st1" d="M261.87,77.34c3.98,9.11,6.71,18.6,8.41,28.38c1.79,10.24,2.26,20.56,1.51,30.92
			c-1.18,16.38-5.17,32.07-12.61,46.72c-18.4,36.22-47.42,59.15-86.96,68.56c-12.81,3.05-25.85,3.69-38.97,2.49
			c-27.55-2.51-51.7-12.96-72.61-31c-0.14-0.12-0.27-0.27-0.41-0.4c0.79-0.73,1.57-1.48,2.38-2.18
			c15.72-13.49,32.19-26.03,49.01-38.11c6.44-4.63,12.91-9.23,19.52-13.64c2.17,3.13,4.48,6.14,7.07,8.93
			c1.38,1.49,2.82,2.92,4.54,4.02c1.46,0.94,3.01,1.63,4.81,1.48c1.78-0.15,2.85-1.49,2.58-3.26c-0.18-1.18-0.76-2.15-1.68-2.89
			c-1.42-1.16-2.87-2.3-4.31-3.43c-3.09-2.42-6.22-4.79-9-7.58c4.17-3.08,8.51-5.91,12.8-8.8c3.56-2.4,7.07-4.89,10.75-7.1
			c0,1.36,0,2.72,0,4.08c0.13,0.04,0.26,0.08,0.4,0.12c0.78-1.17,1.71-2.18,2.84-2.99c1.44-1.03,2.84-1.3,4.62-0.62
			c5.42,2.07,11.12,2.13,16.72,1.34c5.41-0.76,9.99-3.57,13.78-7.55c1.55-1.63,2.7-3.54,3-5.83c0.33-2.48-0.4-4.76-1.36-6.99
			c3.23,4.95,5.52,10.39,7.93,15.75c0.3,0.66,0.03,1.07-0.48,1.45c-0.68,0.5-1.33,1.05-2.1,1.66c0.85,0.37,1.48,0.22,2.09,0.23
			c2.15,0.03,1.75-0.16,2.5,1.82c1.29,3.38,2.39,6.82,3.26,10.34c1.66,6.75,2.71,13.57,1.69,20.55c-0.58,3.95-1.89,7.62-4.3,10.85
			c-1.94,2.6-4.42,4.31-7.65,4.91c-1.75,0.33-3.51,0.6-5.29,0.6c-6.96,0-13.55-1.74-19.95-4.36c-0.61-0.25-1.19-0.67-1.95-0.62
			c0.4,1.04,0.39,1.05,1.28,1.41c4.13,1.64,8.36,3.01,12.7,3.96c3.48,0.76,6.99,1.26,10.57,1.15c7.92-0.25,12.92-3.98,15.42-11.53
			c0.12-0.36,0.23-0.72,0.34-1.09c1.33-4.72,1.38-9.54,0.94-14.36c-0.68-7.43-2.57-14.6-5.02-21.63c-0.2-0.58-0.6-1.13-0.38-2.03
			c2.75,0,5.54,0,8.84,0c-3.05-2.64-2.79-5.54-1.96-8.54c0.1-0.37,0.19-0.74,0.23-1.12c0.09-1.01,0.57-1.36,1.62-1.35
			c3.56,0.06,7.11-0.01,10.67,0.04c1.24,0.02,2.74-0.55,3.67,0.29c0.96,0.86,0.95,2.43,1.36,3.69c0.59,1.81,0.13,3.37-1.06,4.78
			c-0.55,0.65-1.11,1.29-1.79,2.08c9.27,0,18.28,0,27.58,0c-2.3-1.51-3.36-3.56-4.19-5.8c-4.97-13.44-9.98-26.87-14.96-40.31
			c-0.69-1.86-0.6-1.56-2.28-1.59c-2.92-0.06-5.84,0.14-8.75-0.11c0.5-0.39,0.98-0.8,1.49-1.17c7.11-5.18,14.17-10.43,20.93-16.06
			C255.1,83.05,258.48,80.19,261.87,77.34z M228.26,195.47c0.25,0.04,0.8,0.1,1.34,0.23c1.78,0.44,2.55,1.62,2.39,3.43
			c-0.24-0.08,0.16,0.23,0.13-0.02c0.3-2.74,1.77-3.76,4.33-3.64c-0.71-0.46-1.94,0.09-3.08-0.89c-1.14-0.98-1.03-2.14-1.29-3.14
			c-0.37,0.81,0.02,1.78-0.71,2.74C230.38,195.44,229.09,195.27,228.26,195.47z M243.38,163.57c-0.46,3.17-0.96,3.65-4.04,3.94
			c0.75,0.64,1.94-0.08,2.97,0.87c1.05,0.97,0.92,2.1,1.26,3.23c-0.31-1.85,0.58-3.13,2.1-4.16
			C244.39,166.36,243.24,165.32,243.38,163.57z M94.88,222.15c2.43,0.13,3.62,1.4,3.76,3.78c0.01,0.08-0.04-0.31,0-0.05
			c0.22-2.71,1.33-3.79,4.21-3.75c-1.77,0.26-3.13-0.76-4.33-2.16C97.49,221.19,96.59,222.34,94.88,222.15z M247.64,175.02
			c-0.85-0.03-1.47,0.56-1.46,1.4c0,0.77,0.52,1.33,1.28,1.39c0.86,0.06,1.5-0.47,1.55-1.3
			C249.07,175.67,248.49,175.05,247.64,175.02z M210.63,170.81c0.78,0,1.41-0.65,1.41-1.44s-0.63-1.44-1.41-1.45
			c-0.76,0-1.42,0.66-1.42,1.44C209.22,170.14,209.87,170.81,210.63,170.81z M212.05,178.43c-0.04-0.78-0.73-1.4-1.5-1.36
			c-0.78,0.05-1.38,0.73-1.33,1.53c0.04,0.77,0.75,1.41,1.5,1.36C211.49,179.9,212.09,179.21,212.05,178.43z M229.31,170.05
			c0.78,0,1.41-0.65,1.41-1.44s-0.63-1.44-1.41-1.45c-0.76,0-1.42,0.66-1.42,1.44C227.89,169.38,228.54,170.05,229.31,170.05z
			 M107.88,198.76c0.85,0.03,1.47-0.56,1.47-1.39c0-0.76-0.52-1.33-1.28-1.39c-0.86-0.07-1.51,0.47-1.56,1.3
			C106.46,198.11,107.03,198.73,107.88,198.76z M228.24,162.11c-0.07-0.64-0.4-1.08-1.06-1.06c-0.64,0.02-1.03,0.41-1.02,1.08
			c0.01,0.67,0.4,1.05,1.04,1.05C227.86,163.19,228.18,162.75,228.24,162.11z M200.9,177.46c0.74-0.05,1.06-0.47,1.02-1.13
			c-0.03-0.57-0.37-0.94-0.98-0.95c-0.68,0-1.09,0.34-1.09,1.03C199.85,177.1,200.26,177.43,200.9,177.46z M241.78,178.76
			c-0.02-0.68-0.36-1.06-1.02-1.1c-0.67-0.03-1.08,0.36-1.1,0.99c-0.02,0.62,0.33,1.06,1.02,1.07
			C241.33,179.75,241.7,179.4,241.78,178.76z M230.45,189.5c-0.01-0.62-0.28-1.07-0.99-1.1c-0.69-0.03-1.07,0.34-1.09,1.03
			c-0.02,0.6,0.3,0.97,0.89,1.03C229.91,190.53,230.35,190.25,230.45,189.5z M200.83,191.94c0.5-0.06,0.93-0.37,0.92-1.04
			c-0.01-0.66-0.39-1.03-1.05-1.03c-0.68-0.01-1.06,0.42-1.06,1.03C199.64,191.51,200.01,191.92,200.83,191.94z M238.03,195.62
			c0.06,0.64,0.39,1.08,1.04,1.11c0.66,0.03,1.08-0.37,1.11-1.02c0.04-0.66-0.37-1.08-1.02-1.11
			C238.51,194.56,238.15,194.98,238.03,195.62z M163.26,196.56c-0.62,0.12-1.08,0.43-1.05,1.1c0.02,0.64,0.42,1.04,1.09,1.02
			c0.66-0.01,1.05-0.42,1.04-1.06C164.34,196.96,163.88,196.64,163.26,196.56z M138.09,207.8c0.64-0.06,1.08-0.39,1.11-1.04
			c0.03-0.66-0.37-1.08-1.02-1.11c-0.66-0.03-1.08,0.37-1.11,1.02C137.02,207.32,137.45,207.68,138.09,207.8z M95.12,206.08
			c-0.61,0.06-1.08,0.34-1.12,1.01c-0.04,0.65,0.33,1.07,0.99,1.12c0.67,0.05,1.08-0.34,1.14-0.97
			C96.19,206.58,95.75,206.23,95.12,206.08z M110.63,209.79c-0.12-0.65-0.5-1.05-1.14-1.02c-0.62,0.04-1.06,0.44-1.02,1.1
			c0.04,0.63,0.45,1.03,1.12,0.99C110.26,210.84,110.57,210.41,110.63,209.79z M206.83,219.13c-0.05-0.51-0.29-0.98-1.01-1
			c-0.69-0.02-1.06,0.36-1.08,1.04c-0.02,0.6,0.31,0.97,0.9,1.02C206.29,220.26,206.73,219.97,206.83,219.13z"/>
		<path class="st1" d="M20.1,155.07c-2.74-12.1-3.59-24.36-2.7-36.72C20.71,72.2,48.11,33.76,86.07,14.12
			c13.15-6.8,27.05-11.33,41.73-13.08c37.08-4.42,70.18,5.13,99.02,28.97c10.06,8.32,18.46,18.14,25.47,29.15
			c0.24,0.37,0.44,0.77,0.66,1.15c-1.69,1.24-3.54,2.23-5.35,3.27c-14,8.02-28.64,14.76-43.41,21.21
			c-8.83,3.86-17.78,7.46-26.71,11.08c-0.63-0.71-1.27-1.41-1.88-2.14c-9.89-11.81-20.71-22.67-33-32.01
			c-7.8-5.93-16.03-11.16-25.17-14.84c-6.11-2.46-12.4-4.19-19.07-3.64c-7.85,0.65-13.46,4.46-16.32,11.97
			c-0.48,1.25-0.84,2.52-1.11,3.83c-1.34,6.45-0.89,12.88,0.22,19.29c1.67,9.61,4.87,18.75,8.74,27.67
			c2.5,5.77,5.43,11.31,8.38,16.85c-5.39,1.92-10.78,3.84-16.17,5.75c-0.03-5.83,0-11.65-0.11-17.48c-0.05-2.57,0.83-4.69,2.38-6.62
			c0.28-0.35,0.78-0.61,0.8-1.19c-4.56,0-9.02,0-13.82,0c0.66,0.63,1.11,1.03,1.53,1.47c1.8,1.91,2.95,4.05,2.75,6.82
			c-0.15,2.14-0.02,4.31-0.03,6.46c-0.02,4.37-0.05,8.74-0.08,13.11c-0.34,0.11-0.68,0.21-1.02,0.32c-0.35-0.53-0.72-1.04-1.04-1.58
			c-4.93-8.36-9.88-16.72-14.76-25.11c-0.69-1.19-1.47-1.62-2.85-1.6c-5.78,0.08-11.56,0.03-17.34,0.04c-0.54,0-1.14-0.21-1.66,0.22
			c0.3,0.69,0.95,1.01,1.45,1.46c2.09,1.88,3.15,4.07,3.12,7.02c-0.12,9.78-0.02,19.56-0.01,29.34c0,1.27,0.06,2.54-0.17,3.79
			c-3.98,1.66-7.87,3.53-11.75,5.4C26.36,151.99,23.23,153.53,20.1,155.07z M166.65,23.36c3.05,0.33,3.45,0.73,3.91,3.87
			c0.44-3.56,1.62-3.64,3.99-4.07c-3.05-0.34-3.49-0.73-4.16-3.73C169.81,22.61,169.64,22.79,166.65,23.36z M172.4,52.35
			c0.04-0.8-0.53-1.45-1.33-1.5c-0.8-0.05-1.46,0.53-1.5,1.33c-0.05,0.8,0.54,1.45,1.34,1.5C171.72,53.72,172.36,53.15,172.4,52.35z
			 M153.15,26.44c0.05-0.82-0.51-1.46-1.31-1.5c-0.8-0.05-1.45,0.52-1.51,1.32c-0.06,0.8,0.52,1.46,1.32,1.51
			C152.44,27.82,153.1,27.24,153.15,26.44z M138.48,24.43c-0.01-0.81-0.62-1.4-1.43-1.39c-0.8,0-1.4,0.62-1.4,1.43
			c0.01,0.81,0.62,1.41,1.43,1.4C137.89,25.85,138.49,25.23,138.48,24.43z M127.54,39.12c-0.1-0.68-0.51-0.99-1.19-0.93
			c-0.61,0.06-0.91,0.46-0.9,1.03c0.01,0.68,0.4,1.07,1.09,1.04C127.23,40.23,127.54,39.81,127.54,39.12z M145.91,10.39
			c-0.09-0.58-0.39-1.03-1.06-1.01c-0.64,0.02-1.03,0.4-1.03,1.07c0,0.67,0.39,1.06,1.03,1.06
			C145.52,11.52,145.84,11.08,145.91,10.39z M122.81,43.54c-0.04-0.61-0.33-1.04-0.99-1.09c-0.66-0.06-1.1,0.3-1.16,0.94
			c-0.07,0.65,0.33,1.07,0.98,1.13C122.27,44.57,122.68,44.22,122.81,43.54z M152.96,41.14c-0.14-0.5-0.45-0.94-1.12-0.89
			c-0.65,0.05-1.03,0.5-0.99,1.13c0.04,0.62,0.46,1.06,1.12,1C152.6,42.33,152.96,41.91,152.96,41.14z M124.38,37.14
			c-0.04-0.66-0.38-1.07-1.03-1.09c-0.66-0.02-1.06,0.42-1.08,1.04c-0.02,0.63,0.38,1.08,1.03,1.09
			C123.94,38.2,124.31,37.8,124.38,37.14z M141.87,35.24c-0.13-0.66-0.52-1.06-1.15-1.01c-0.62,0.05-1.06,0.46-1,1.12
			c0.05,0.63,0.46,1.02,1.13,0.98C141.51,36.29,141.82,35.86,141.87,35.24z M121.51,35.09c-0.02-0.63-0.29-1.09-1-1.1
			c-0.68-0.01-1.08,0.34-1.08,1.04c-0.01,0.59,0.32,0.96,0.9,1.03C121.01,36.13,121.41,35.8,121.51,35.09z"/>
		<path class="st1" d="M57.27,220.35c-17.45-16.53-29.4-36.37-35.78-59.56c-0.15-0.55-0.29-1.1-0.43-1.65
			c1.84-1.1,3.84-1.88,5.81-2.7c4.36-1.8,8.75-3.52,13.13-5.27c4.01-0.04,8.03-0.09,12.28-0.14c-0.94-1.2-2.13-1.8-2.72-2.93
			c0.89-0.29,1.79-0.59,2.68-0.88c3.16-1.02,6.33-2.04,9.49-3.05c1.31,1.72,2.32,3.63,3.38,5.5c0.57,1,1.22,1.4,2.39,1.38
			c5.71-0.06,11.43-0.02,17.14-0.04c0.47,0,0.98,0.13,1.59-0.22c-1.05-1.08-2.11-1.98-2.91-3.11c-0.67-0.94-1.3-1.89-1.29-3.11
			c0.03-1.96,0.05-3.93,0.08-5.9c1.59-0.39,3.18-0.79,4.77-1.18c5.86-1.46,11.73-2.91,17.59-4.37c-0.76,3.53-1.97,6.95-2.79,10.46
			c-0.51,2.19-1.7,3.77-3.37,5.12c-0.87,0.7-1.73,1.39-2.86,2.29c5.14,0,9.91,0,14.91,0c-1.05-1.66-2.54-3.02-2.24-5.01
			c0.27-1.82,0.52-3.66,1.16-5.45c0.62,0.36,0.83,0.85,1.11,1.26c3.83,5.38,7.89,10.58,12.16,15.62c1.93,2.28,3.86,4.55,5.4,7.12
			c-5.91,4.05-11.84,8.08-17.73,12.16c-6.15,4.26-12.47,8.29-18.25,13.07c-9.75,8.04-19.11,16.51-28.46,25
			C61.44,216.65,59.5,218.67,57.27,220.35z M99.4,177.83c-0.75-0.03-1.44,0.62-1.47,1.39c-0.03,0.79,0.59,1.47,1.36,1.5
			c0.77,0.03,1.44-0.6,1.47-1.39C100.78,178.54,100.17,177.86,99.4,177.83z M69.14,195.67c-0.8,0-1.45,0.63-1.45,1.41
			c-0.01,0.76,0.66,1.42,1.44,1.42c0.78,0,1.45-0.65,1.45-1.41C70.58,196.31,69.94,195.68,69.14,195.67z M65.5,184.24
			c-0.8-0.05-1.45,0.53-1.49,1.33c-0.04,0.8,0.55,1.45,1.35,1.49c0.81,0.04,1.45-0.53,1.48-1.34
			C66.88,184.93,66.3,184.29,65.5,184.24z M99,153.65c-0.71,0-1.11,0.38-1.12,1.01c-0.02,0.62,0.34,1.06,1.03,1.07
			c0.66,0.01,1.06-0.33,1.09-1C100.01,154.05,99.62,153.71,99,153.65z M52.45,187.54c0.04-0.78-0.33-1.19-0.96-1.23
			c-0.62-0.04-1.07,0.3-1.11,0.98c-0.03,0.65,0.28,1.08,0.95,1.13C52.01,188.46,52.37,188.09,52.45,187.54z M86.84,192.09
			c-0.03-0.64-0.3-1.08-1.02-1.09c-0.57-0.01-0.98,0.26-1.06,0.87c-0.08,0.68,0.22,1.12,0.9,1.2
			C86.35,193.15,86.74,192.79,86.84,192.09z M63.54,191.83c-0.64,0.08-0.98,0.46-0.96,1.12c0.02,0.69,0.47,1.03,1.09,1
			c0.62-0.03,1.03-0.44,0.98-1.11C64.61,192.19,64.22,191.85,63.54,191.83z"/>
		<path class="st2" d="M177.51,95.87c8.94-3.62,17.88-7.22,26.71-11.08c14.77-6.46,29.4-13.19,43.41-21.21
			c1.81-1.04,3.66-2.03,5.35-3.27c4.08-2.19,7.93-4.76,11.77-7.32c15.64-10.43,29.82-22.53,42.05-36.85
			c1.3-1.53,2.38-3.25,3.97-4.53l-0.03-0.04c0.27,0.82-0.24,1.48-0.5,2.16c-4.26,11.17-10.3,21.34-17.45,30.87
			c-8.65,11.52-18.68,21.74-29.41,31.3c-0.52,0.46-1,0.96-1.51,1.45c-3.39,2.85-6.77,5.71-10.18,8.54
			c-6.76,5.64-13.82,10.88-20.93,16.06c-0.51,0.37-0.99,0.78-1.49,1.17c-2.11,1.12-3.94,2.65-5.88,4.02c-1.53,1.08-3.18,2-4.51,3.35
			c-0.38,0.22-0.77,0.43-1.14,0.68c-6.69,4.56-13.37,9.12-20.05,13.68c-1.15-1.34-1.93-2.9-2.73-4.45c2.5-1.72,5.03-3.42,7.5-5.18
			c4.74-3.38,9.53-6.69,14.12-10.29c0.89-0.35,1.63-0.91,2.21-1.67c1.31-0.67,2.4-1.65,3.57-2.52c8.02-6.01,16-12.08,23.66-18.55
			c0.24-0.2,0.51-0.39,0.72-0.62c0.21-0.22,0.62-0.37,0.51-0.88c-16.48,10.73-34.08,18.98-52.25,26.07c0-1.24,0-2.48,0-4.07
			c-0.87,0.68-1.39,1.1-1.93,1.51c-0.9,0.69-1.9,0.96-3.03,0.76c-1.81-0.32-3.62-0.59-5.43-0.89c-0.58-0.09-1.07-0.3-1.44-0.8
			C181.29,100.79,179.4,98.33,177.51,95.87z"/>
		<path class="st2" d="M57.28,220.35c2.23-1.69,4.17-3.71,6.23-5.58c9.35-8.49,18.72-16.96,28.46-25
			c5.79-4.78,12.1-8.81,18.25-13.07c5.89-4.08,11.82-8.11,17.73-12.16c1.18-0.54,2.26-1.24,3.17-2.17
			c3.63-2.42,7.27-4.81,10.87-7.26c1.93-1.31,3.96-2.48,5.75-4c0.76-0.26,1.52-0.52,1.85-1.36c0.34,0.03,0.61-0.15,0.87-0.33
			c2.78-1.88,5.56-3.76,8.34-5.64c1.19-0.6,2.33-1.27,3.29-2.21c3.68-2.34,7.37-4.67,10.9-7.24c0.59-0.07,1.03-0.45,1.5-0.76
			c3.76-2.43,7.55-4.81,11.39-7.11c1.4-0.84,2.87-1.59,4.06-2.74c0.97-0.6,1.93-1.2,2.9-1.8c0.99,1.38,1.89,2.81,2.65,4.33
			c-0.27,0.26-0.54,0.52-0.81,0.78c-0.7,0-1.15,0.5-1.67,0.84c-3.93,2.58-7.85,5.16-11.77,7.75c-0.53,0.35-1.1,0.63-1.5,1.15
			c-4.02,2.5-8.02,5.03-11.9,7.75c-3.2,1.74-6.26,3.71-9.16,5.92c-3.69,2.21-7.19,4.7-10.75,7.1c-4.3,2.9-8.63,5.72-12.8,8.8
			c-1.47,0.71-2.78,1.67-4.01,2.74c-6.6,4.4-13.07,9-19.52,13.64c-16.81,12.09-33.29,24.62-49.01,38.11
			c-0.82,0.7-1.59,1.45-2.38,2.18c-2.46,1.8-4.67,3.9-6.96,5.9c-4.97,4.35-9.88,8.75-14.83,13.13c-0.46,0.41-0.87,0.91-1.66,1.23
			c-0.06-1.93-0.24-3.59,1.45-5.1c5.94-5.35,11.74-10.86,17.59-16.32C56.33,221.37,56.79,220.85,57.28,220.35z"/>
		<path class="st2" d="M40.01,151.18c-4.38,1.75-8.77,3.46-13.13,5.27c-1.97,0.82-3.97,1.59-5.81,2.7
			c-4.58,1.89-8.91,4.29-13.29,6.59c-1.07,0.56-2.18,1.07-3.16,1.76c-1.02,0.72-1.95,0.72-3,0.16c-0.5-0.27-1.04-0.45-1.62-0.69
			c0.37-0.71,1.06-0.95,1.62-1.3c5.48-3.45,11.11-6.65,16.84-9.66c0.56-0.29,1.1-0.63,1.64-0.95c3.13-1.53,6.26-3.08,9.4-4.59
			c3.89-1.87,7.77-3.73,11.75-5.4c-0.19,2.56-2.04,4.14-3.77,5.94C38.49,151.09,39.25,151.14,40.01,151.18z"/>
		<path class="st3" d="M310.77,11.6c0.06-0.1,0.11-0.2,0.17-0.3c0.11,0.22,0.11,0.36-0.2,0.26C310.74,11.57,310.77,11.6,310.77,11.6
			z"/>
		<path class="st4" d="M189.96,123.73c-1.2,1.15-2.66,1.9-4.06,2.74c-3.84,2.3-7.64,4.68-11.39,7.11c-0.47,0.31-0.91,0.69-1.5,0.76
			c-1.88-0.73-3.78-1.41-5.63-2.21c-5.61-2.42-9.07-6.48-9.54-12.75c0.02-0.44,0.05-0.88,0.06-1.32c0.03-3.71,1.35-6.93,3.86-9.62
			c3.34-3.58,7.52-5.2,12.4-5.1c1.8,0.04,3.61,0.01,5.74,0.01c-1.79-2.32-3.37-4.48-5.22-6.43c-0.89-1.4-2.03-2.59-3.1-3.84
			c-10.18-11.82-21.27-22.68-33.93-31.84c-7.16-5.19-14.69-9.75-23.04-12.81c-4.74-1.73-9.59-2.88-14.69-2.61
			c-7.37,0.38-12.66,4.28-15.2,11.23c-1.26,3.45-1.71,7.03-1.72,10.65c-0.02,7.69,1.6,15.11,3.88,22.4
			c3.51,11.19,8.58,21.67,14.44,31.8c-0.95,0.49-1.93,0.93-3.02,0.98c-2.95-5.54-5.88-11.09-8.38-16.85
			c-3.87-8.93-7.07-18.06-8.74-27.67c-1.11-6.41-1.56-12.85-0.22-19.29c0.27-1.31,0.64-2.58,1.11-3.83
			c2.86-7.51,8.47-11.33,16.32-11.97c6.67-0.55,12.96,1.19,19.07,3.64c9.14,3.67,17.36,8.91,25.17,14.84
			c12.29,9.34,23.11,20.19,33,32.01c0.61,0.73,1.25,1.43,1.88,2.14c1.89,2.46,3.78,4.92,5.65,7.39c0.38,0.5,0.86,0.71,1.44,0.8
			c1.81,0.29,3.62,0.57,5.43,0.89c1.14,0.2,2.13-0.07,3.03-0.76c0.53-0.41,1.06-0.83,1.93-1.51c0,1.6,0,2.84,0,4.07
			c-0.05,2.55-0.1,5.11-0.15,7.97c-1.83-1.13-3.37-2.28-5.35-2.65c1.83,2.78,3.65,5.55,5.47,8.33c0.8,1.55,1.59,3.11,2.73,4.45
			c0.04,0.74,0.54,1.27,0.87,1.87c3.23,5.75,6.17,11.65,8.77,17.72c0.34,0.81,0.57,1.67,1.12,2.42c1.12-0.69,1.25-1.89,1.54-2.96
			c2.24-8.06,4.46-16.12,6.63-24.2c0.82-3.05,1.79-6.07,2.25-9.22c1.33-1.35,2.98-2.27,4.51-3.35c1.94-1.37,3.77-2.9,5.88-4.02
			c2.92,0.25,5.84,0.05,8.75,0.11c1.68,0.04,1.59-0.27,2.28,1.59c4.98,13.44,9.99,26.87,14.96,40.31c0.83,2.24,1.88,4.28,4.19,5.8
			c-9.3,0-18.31,0-27.58,0c0.68-0.78,1.24-1.43,1.79-2.08c1.19-1.4,1.64-2.96,1.06-4.78c-0.41-1.26-0.4-2.83-1.36-3.69
			c-0.93-0.84-2.43-0.27-3.67-0.29c-3.56-0.05-7.11,0.02-10.67-0.04c-1.05-0.02-1.53,0.34-1.62,1.34c-0.03,0.38-0.13,0.75-0.23,1.12
			c-0.83,3-1.1,5.9,1.96,8.54c-3.3,0-6.1,0-8.84,0c-0.22,0.9,0.18,1.45,0.38,2.03c2.45,7.03,4.34,14.2,5.02,21.63
			c0.44,4.82,0.39,9.64-0.94,14.36c-0.1,0.37-0.22,0.73-0.34,1.09c-2.5,7.55-7.5,11.28-15.42,11.53c-3.58,0.11-7.1-0.39-10.57-1.15
			c-4.34-0.95-8.57-2.32-12.7-3.96c-0.89-0.35-0.89-0.37-1.28-1.41c0.76-0.06,1.34,0.37,1.95,0.62c6.39,2.62,12.98,4.36,19.95,4.36
			c1.78,0,3.53-0.27,5.29-0.6c3.24-0.6,5.71-2.31,7.65-4.91c2.41-3.23,3.72-6.9,4.3-10.85c1.02-6.98-0.03-13.79-1.69-20.55
			c-0.87-3.51-1.97-6.96-3.26-10.34c-0.75-1.98-0.35-1.79-2.5-1.82c-0.61-0.01-1.24,0.14-2.09-0.23c0.77-0.61,1.42-1.15,2.1-1.66
			c0.51-0.38,0.78-0.78,0.48-1.45c-2.41-5.37-4.69-10.8-7.93-15.75l0.04,0.04c-0.26-0.53-0.53-1.05-0.79-1.58l0.03,0.04
			c-0.08-0.21-0.13-0.43-0.42-0.42l0.04,0.04c-0.32-1.5-1.28-2.65-2.08-3.88c-0.76-1.52-1.66-2.95-2.65-4.33
			c-2.38-3.95-4.92-7.8-7.75-11.44c-0.19-0.38-0.54-0.48-0.93-0.56c-2.52-0.51-5.03-0.54-7.54,0.02c-1.06,0.24-2.06,0.62-2.92,1.32
			c-1.19,0.97-1.43,1.9-0.91,3.49c0.32,1.44,1.46,2.15,2.6,2.81c1.48,0.85,3.09,1.39,4.71,1.92
			C183.52,120.6,186.86,121.88,189.96,123.73z M219.17,133.9c4.11,0,8.01,0,12.22,0c-2.29-5.68-4.53-11.22-6.77-16.76
			c-0.11,0.01-0.22,0.02-0.33,0.03C222.6,122.7,220.91,128.23,219.17,133.9z"/>
		<path class="st4" d="M158.69,150.45c2.9-2.21,5.96-4.18,9.16-5.92c2.5,1.06,5.13,1.19,7.79,1.01c2.34-0.16,4.65-0.48,6.7-1.75
			c1.96-1.21,2.2-3.05,0.66-4.76c-0.9-1-2.04-1.67-3.24-2.24c0.4-0.52,0.98-0.8,1.5-1.15c3.92-2.59,7.84-5.18,11.77-7.75
			c0.52-0.34,0.97-0.84,1.67-0.84c0.96,1.03,1.93,2.07,2.89,3.11l-0.04-0.04c0.07,0.21,0.16,0.41,0.43,0.42l-0.03-0.04
			c0.26,0.53,0.53,1.05,0.79,1.58l-0.04-0.04c0.95,2.23,1.68,4.52,1.35,6.99c-0.3,2.29-1.45,4.2-3,5.83
			c-3.78,3.97-8.37,6.79-13.78,7.55c-5.6,0.79-11.3,0.73-16.72-1.34c-1.77-0.68-3.18-0.42-4.62,0.62c-1.13,0.81-2.06,1.82-2.84,2.99
			c-0.13-0.04-0.26-0.08-0.4-0.12C158.69,153.16,158.69,151.8,158.69,150.45z"/>
		<path class="st5" d="M131.13,169.08c1.23-1.07,2.53-2.03,4.01-2.74c2.78,2.79,5.91,5.16,9,7.58c1.44,1.13,2.89,2.27,4.31,3.43
			c0.92,0.75,1.49,1.71,1.68,2.89c0.28,1.77-0.79,3.12-2.58,3.26c-1.8,0.15-3.35-0.54-4.81-1.48c-1.72-1.11-3.16-2.54-4.54-4.02
			C135.61,175.22,133.3,172.21,131.13,169.08z"/>
		<path class="st6" d="M228.25,195.47c0.84-0.2,2.13-0.03,3.1-1.3c0.73-0.96,0.34-1.93,0.71-2.74c0.26,1.01,0.16,2.17,1.29,3.14
			c1.14,0.98,2.36,0.43,3.08,0.89c-2.56-0.12-4.04,0.9-4.33,3.64c0.03,0.25-0.37-0.06-0.13,0.03c0.16-1.81-0.6-2.98-2.39-3.43
			C229.05,195.57,228.5,195.51,228.25,195.47z"/>
		<path class="st6" d="M243.38,163.57c-0.14,1.75,1.01,2.79,2.29,3.89c-1.53,1.03-2.41,2.31-2.1,4.16
			c-0.34-1.13-0.21-2.26-1.26-3.23c-1.03-0.95-2.22-0.23-2.97-0.87C242.41,167.22,242.92,166.74,243.38,163.57z"/>
		<path class="st6" d="M94.86,222.15c1.71,0.19,2.62-0.96,3.64-2.18c1.21,1.4,2.56,2.42,4.34,2.16c-2.88-0.04-4,1.04-4.21,3.75
			c-0.04-0.25,0,0.14,0,0.05C98.48,223.55,97.28,222.28,94.86,222.15z"/>
		<path class="st6" d="M247.64,175.02c0.85,0.03,1.42,0.65,1.37,1.48c-0.05,0.83-0.69,1.36-1.55,1.3c-0.76-0.06-1.28-0.62-1.28-1.39
			C246.18,175.58,246.79,174.99,247.64,175.02z"/>
		<path class="st6" d="M210.62,170.81c-0.76,0-1.41-0.66-1.41-1.45c0-0.78,0.65-1.45,1.42-1.44c0.78,0,1.41,0.65,1.41,1.45
			S211.39,170.81,210.62,170.81z"/>
		<path class="st6" d="M212.03,178.43c0.04,0.78-0.56,1.48-1.33,1.53c-0.75,0.05-1.46-0.59-1.5-1.36c-0.04-0.79,0.55-1.48,1.33-1.53
			C211.3,177.02,211.99,177.64,212.03,178.43z"/>
		<path class="st6" d="M229.3,170.05c-0.76,0-1.41-0.66-1.41-1.45s0.65-1.45,1.42-1.44c0.78,0,1.41,0.65,1.41,1.45
			C230.72,169.4,230.08,170.04,229.3,170.05z"/>
		<path class="st6" d="M107.85,198.76c-0.85-0.03-1.42-0.65-1.37-1.49c0.05-0.82,0.7-1.36,1.56-1.3c0.75,0.06,1.28,0.63,1.28,1.39
			C109.32,198.21,108.7,198.8,107.85,198.76z"/>
		<path class="st6" d="M228.23,162.11c-0.06,0.64-0.38,1.08-1.04,1.08c-0.64,0-1.03-0.39-1.04-1.05c-0.01-0.67,0.38-1.06,1.02-1.08
			C227.84,161.04,228.16,161.47,228.23,162.11z"/>
		<path class="st6" d="M200.89,177.46c-0.65-0.03-1.06-0.35-1.05-1.05c0.01-0.69,0.42-1.03,1.09-1.03c0.61,0,0.95,0.37,0.98,0.95
			C201.95,176.99,201.63,177.41,200.89,177.46z"/>
		<path class="st6" d="M241.76,178.76c-0.07,0.64-0.45,0.99-1.1,0.97c-0.68-0.01-1.04-0.45-1.02-1.07c0.02-0.63,0.43-1.03,1.1-0.99
			C241.4,177.7,241.74,178.08,241.76,178.76z"/>
		<path class="st6" d="M230.43,189.5c-0.09,0.75-0.54,1.03-1.19,0.96c-0.59-0.06-0.91-0.44-0.89-1.03c0.03-0.68,0.4-1.06,1.09-1.03
			C230.14,188.44,230.42,188.88,230.43,189.5z"/>
		<path class="st6" d="M200.81,191.94c-0.82-0.01-1.19-0.42-1.19-1.04c0-0.62,0.38-1.05,1.06-1.03c0.66,0.01,1.05,0.37,1.05,1.03
			C201.74,191.57,201.32,191.88,200.81,191.94z"/>
		<path class="st6" d="M238.01,195.62c0.12-0.64,0.48-1.06,1.14-1.02c0.64,0.04,1.05,0.46,1.02,1.11c-0.03,0.64-0.46,1.05-1.11,1.02
			C238.4,196.69,238.07,196.26,238.01,195.62z"/>
		<path class="st6" d="M163.24,196.56c0.62,0.09,1.07,0.4,1.08,1.06c0.01,0.64-0.38,1.05-1.04,1.06c-0.66,0.01-1.06-0.38-1.09-1.02
			C162.16,196.99,162.62,196.67,163.24,196.56z"/>
		<path class="st6" d="M138.08,207.8c-0.64-0.12-1.06-0.48-1.03-1.14c0.04-0.65,0.46-1.05,1.11-1.02c0.64,0.03,1.05,0.46,1.02,1.11
			C139.16,207.41,138.72,207.75,138.08,207.8z"/>
		<path class="st6" d="M95.11,206.08c0.63,0.14,1.07,0.49,1.01,1.15c-0.06,0.63-0.47,1.02-1.14,0.97c-0.66-0.05-1.03-0.47-0.99-1.12
			C94.03,206.43,94.5,206.14,95.11,206.08z"/>
		<path class="st6" d="M110.63,209.79c-0.06,0.62-0.37,1.05-1.04,1.08c-0.67,0.03-1.07-0.36-1.12-0.99
			c-0.05-0.66,0.39-1.06,1.02-1.1C110.14,208.74,110.52,209.14,110.63,209.79z"/>
		<path class="st6" d="M206.82,219.13c-0.1,0.84-0.54,1.13-1.19,1.07c-0.59-0.06-0.92-0.42-0.9-1.02c0.02-0.68,0.39-1.06,1.08-1.04
			C206.53,218.15,206.77,218.62,206.82,219.13z"/>
		<path class="st4" d="M40.01,151.18c-0.76-0.05-1.51-0.09-2.52-0.16c1.73-1.8,3.58-3.38,3.77-5.94c0.23-1.26,0.17-2.53,0.17-3.79
			c-0.01-9.78-0.11-19.56,0.01-29.34c0.03-2.95-1.03-5.14-3.12-7.02c-0.5-0.45-1.15-0.78-1.45-1.46c0.52-0.43,1.11-0.22,1.66-0.22
			c5.78-0.02,11.56,0.03,17.34-0.04c1.38-0.02,2.15,0.41,2.85,1.6c4.88,8.4,9.83,16.75,14.76,25.11c0.32,0.54,0.69,1.06,1.04,1.58
			c0.18,0.57,0.41,1.1,1,1.49c0.15-0.71,0.14-1.26,0.02-1.81c0.03-4.37,0.06-8.74,0.08-13.11c0.01-2.15-0.12-4.32,0.03-6.46
			c0.19-2.77-0.95-4.9-2.75-6.82c-0.41-0.44-0.87-0.84-1.53-1.47c4.81,0,9.27,0,13.82,0c-0.03,0.58-0.52,0.83-0.8,1.19
			c-1.56,1.94-2.43,4.06-2.38,6.62c0.11,5.82,0.08,11.65,0.11,17.48c-0.14,3.36-0.14,6.72,0,10.09c-0.03,1.96-0.05,3.93-0.08,5.9
			c-0.02,1.22,0.62,2.17,1.29,3.11c0.8,1.13,1.87,2.03,2.91,3.11c-0.61,0.34-1.12,0.22-1.59,0.22c-5.71,0.01-11.43-0.03-17.14,0.04
			c-1.17,0.01-1.83-0.38-2.39-1.38c-1.06-1.87-2.07-3.78-3.38-5.5c-1.06-2.18-2.31-4.24-3.69-6.23c-3.09-5.6-6.48-11.02-9.75-16.51
			c-0.11-0.18-0.27-0.21-0.5-0.05c0,2.37-0.01,4.78,0,7.18c0.02,4.5,0.05,8.99,0.08,13.49c-0.25,2.24-0.16,4.39,1.69,6.04
			c0.59,1.13,1.77,1.73,2.72,2.93C48.04,151.09,44.02,151.14,40.01,151.18z"/>
		<path class="st2" d="M82.12,138.7c-0.14-3.36-0.14-6.72,0-10.09c5.39-1.92,10.78-3.84,16.17-5.75c1.1-0.05,2.07-0.49,3.02-0.98
			c2.26-0.7,4.51-1.41,6.77-2.11c-0.98,4.52-2.25,8.96-3.6,13.38c-5.86,1.46-11.73,2.91-17.59,4.37
			C85.3,137.91,83.71,138.31,82.12,138.7z"/>
		<path class="st6" d="M166.64,23.36c2.99-0.57,3.17-0.75,3.75-3.92c0.67,2.99,1.11,3.39,4.16,3.73c-2.37,0.42-3.55,0.51-3.99,4.07
			C170.1,24.09,169.69,23.7,166.64,23.36z"/>
		<path class="st6" d="M172.39,52.35c-0.04,0.8-0.68,1.37-1.49,1.33c-0.8-0.04-1.38-0.7-1.34-1.5c0.05-0.8,0.7-1.38,1.5-1.33
			C171.86,50.9,172.44,51.55,172.39,52.35z"/>
		<path class="st6" d="M153.15,26.44c-0.05,0.8-0.71,1.38-1.51,1.33c-0.8-0.05-1.37-0.71-1.32-1.51c0.05-0.79,0.71-1.36,1.51-1.32
			C152.64,24.99,153.2,25.63,153.15,26.44z"/>
		<path class="st6" d="M138.49,24.43c0.01,0.8-0.59,1.42-1.39,1.43c-0.81,0.01-1.43-0.59-1.43-1.4c-0.01-0.8,0.59-1.42,1.4-1.43
			C137.87,23.03,138.47,23.62,138.49,24.43z"/>
		<path class="st6" d="M127.54,39.12c0.01,0.69-0.31,1.11-1,1.14c-0.69,0.03-1.08-0.36-1.09-1.04c-0.01-0.57,0.3-0.98,0.9-1.03
			C127.03,38.13,127.44,38.43,127.54,39.12z"/>
		<path class="st6" d="M145.91,10.39c-0.07,0.69-0.39,1.13-1.05,1.12c-0.64-0.01-1.03-0.39-1.03-1.06c0-0.67,0.38-1.06,1.03-1.07
			C145.53,9.36,145.83,9.81,145.91,10.39z"/>
		<path class="st6" d="M122.81,43.54c-0.13,0.68-0.54,1.03-1.18,0.97c-0.64-0.05-1.04-0.48-0.98-1.13c0.06-0.63,0.5-0.99,1.16-0.94
			C122.48,42.51,122.77,42.94,122.81,43.54z"/>
		<path class="st6" d="M152.97,41.14c0,0.78-0.36,1.19-0.99,1.24c-0.66,0.05-1.07-0.38-1.12-1c-0.04-0.63,0.34-1.08,0.99-1.13
			C152.52,40.2,152.83,40.64,152.97,41.14z"/>
		<path class="st6" d="M124.39,37.14c-0.07,0.65-0.44,1.05-1.08,1.04c-0.65-0.01-1.05-0.46-1.03-1.09c0.02-0.63,0.42-1.06,1.08-1.04
			C124,36.07,124.35,36.49,124.39,37.14z"/>
		<path class="st6" d="M141.88,35.24c-0.05,0.62-0.36,1.05-1.02,1.09c-0.67,0.04-1.08-0.35-1.13-0.98c-0.06-0.66,0.38-1.07,1-1.12
			C141.36,34.19,141.75,34.58,141.88,35.24z"/>
		<path class="st6" d="M121.5,35.09c-0.1,0.71-0.5,1.04-1.18,0.97c-0.59-0.06-0.91-0.43-0.91-1.03c0.01-0.69,0.41-1.05,1.08-1.04
			C121.22,34,121.48,34.46,121.5,35.09z"/>
		<path class="st2" d="M75.53,131.18c0.12,0.55,0.13,1.09-0.02,1.81c-0.59-0.39-0.82-0.92-1-1.49
			C74.85,131.39,75.19,131.29,75.53,131.18z"/>
		<path class="st4" d="M104.48,133.15c1.36-4.42,2.63-8.86,3.61-13.38c0.98-2.61,1.4-5.37,2.22-8.02c0.69-2.23,0.08-4.11-1.3-5.83
			c-0.66-0.83-1.4-1.59-2.08-2.37c0.28-0.38,0.61-0.31,0.91-0.31c7.41,0,14.81,0.02,22.22-0.03c1.03-0.01,1.41,0.43,1.73,1.32
			c0.8,2.26,1.71,4.48,2.58,6.72c1.02,3.36,2.38,6.59,3.59,9.88c0.38,1.04,0.59,2.17,1.31,3.08c0.03,0.25,0.01,0.52,0.09,0.75
			c2.64,7.12,5.29,14.24,7.96,21.35c0.49,1.31,1.19,2.52,2.29,3.45c-0.33,0.85-1.09,1.1-1.85,1.36c-0.7-0.03-1.39-0.08-2.09-0.08
			c-6.73-0.01-13.46,0-20.19,0c-0.61,0-1.22,0-2.16,0c0.76-0.85,1.3-1.44,1.82-2.05c1.23-1.43,1.86-3.01,1.18-4.91
			c-0.3-0.83-0.54-1.69-0.75-2.55c-0.26-1.05-0.78-1.56-1.98-1.48c-1.77,0.12-3.55,0.03-5.33,0.03c-1.49,0-2.99,0-4.57,0
			c1.04,2.34,11.75,15.96,17.45,22.29c-0.91,0.94-1.99,1.63-3.17,2.17c-1.55-2.57-3.47-4.84-5.4-7.12
			c-4.27-5.04-8.33-10.24-12.16-15.62c-0.29-0.41-0.49-0.89-1.11-1.26c-0.64,1.8-0.9,3.64-1.16,5.45c-0.29,1.98,1.19,3.34,2.24,5.01
			c-5,0-9.77,0-14.91,0c1.13-0.9,2-1.59,2.86-2.29c1.67-1.34,2.86-2.92,3.37-5.12C102.51,140.1,103.72,136.68,104.48,133.15z
			 M111.67,131.21c-0.34,0.86-0.79,1.69-0.66,2.7c3.96,0,7.85,0,11.87,0c-0.54-1.78-1.2-3.4-1.98-4.96
			c-1.54-3.91-3.08-7.82-4.65-11.8c-0.31,0.25-0.46,0.31-0.49,0.41C114.39,122.11,113.03,126.66,111.67,131.21z"/>
		<path class="st2" d="M58.05,137.96c1.38,1.99,2.63,4.05,3.69,6.23c-3.16,1.02-6.33,2.03-9.49,3.05c-0.9,0.29-1.79,0.59-2.68,0.88
			c-1.85-1.65-1.94-3.8-1.69-6.04C51.27,140.7,54.66,139.33,58.05,137.96z"/>
		<path class="st6" d="M99.39,177.83c0.77,0.03,1.39,0.71,1.36,1.5c-0.03,0.78-0.7,1.42-1.47,1.39c-0.77-0.03-1.39-0.71-1.36-1.5
			C97.95,178.44,98.64,177.79,99.39,177.83z"/>
		<path class="st6" d="M69.14,195.67c0.79,0,1.44,0.64,1.44,1.42c0,0.76-0.67,1.41-1.45,1.41c-0.78,0-1.44-0.66-1.44-1.42
			C67.7,196.3,68.35,195.67,69.14,195.67z"/>
		<path class="st6" d="M65.49,184.24c0.8,0.04,1.38,0.68,1.34,1.49c-0.04,0.8-0.67,1.37-1.48,1.34c-0.8-0.04-1.39-0.69-1.35-1.49
			C64.04,184.78,64.69,184.2,65.49,184.24z"/>
		<path class="st6" d="M98.99,153.65c0.62,0.06,1.01,0.41,0.99,1.07c-0.02,0.67-0.43,1.01-1.09,1c-0.68-0.01-1.04-0.44-1.03-1.07
			C97.88,154.03,98.28,153.65,98.99,153.65z"/>
		<path class="st6" d="M52.44,187.54c-0.08,0.55-0.44,0.92-1.11,0.87c-0.67-0.05-0.99-0.48-0.95-1.13c0.03-0.68,0.49-1.02,1.11-0.98
			C52.11,186.35,52.48,186.76,52.44,187.54z"/>
		<path class="st6" d="M86.84,192.09c-0.1,0.7-0.49,1.05-1.17,0.98c-0.68-0.08-0.99-0.52-0.9-1.2c0.07-0.61,0.48-0.87,1.06-0.87
			C86.54,191.01,86.81,191.46,86.84,192.09z"/>
		<path class="st6" d="M63.55,191.83c0.68,0.02,1.07,0.35,1.11,1.01c0.04,0.67-0.36,1.08-0.98,1.11c-0.62,0.03-1.07-0.32-1.09-1
			C62.57,192.3,62.91,191.92,63.55,191.83z"/>
		<path class="st1" d="M194.96,120.4c-1.83-2.78-3.65-5.55-5.47-8.33c1.98,0.38,3.52,1.52,5.35,2.65c0.05-2.86,0.1-5.41,0.15-7.97
			c18.18-7.08,35.78-15.33,52.25-26.07c0.11,0.51-0.3,0.66-0.51,0.88c-0.21,0.23-0.48,0.41-0.72,0.62
			c-7.66,6.47-15.64,12.54-23.66,18.55c-1.16,0.87-2.26,1.85-3.57,2.52c-1.15-0.02-2.31-0.08-3.7,0.05c0.65,0.71,1.07,1.16,1.5,1.62
			c-4.58,3.6-9.38,6.91-14.12,10.29C199.98,116.98,197.46,118.68,194.96,120.4z"/>
		<path class="st1" d="M218.87,110.49c-0.46,3.14-1.43,6.16-2.25,9.22c-2.17,8.08-4.39,16.14-6.63,24.2
			c-0.3,1.06-0.43,2.27-1.54,2.96c-0.55-0.76-0.78-1.62-1.12-2.42c-2.6-6.07-5.55-11.96-8.77-17.72c-0.34-0.6-0.83-1.13-0.87-1.87
			c6.68-4.56,13.37-9.13,20.05-13.68C218.1,110.92,218.49,110.72,218.87,110.49z"/>
		<path class="st6" d="M216.57,104.93c-0.42-0.46-0.85-0.92-1.5-1.62c1.39-0.13,2.55-0.08,3.7-0.05
			C218.19,104.03,217.46,104.58,216.57,104.93z"/>
		<path class="st1" d="M149.6,149.76c-1.1-0.93-1.79-2.14-2.29-3.45c-2.67-7.11-5.31-14.23-7.96-21.35
			c-0.08-0.23-0.06-0.5-0.09-0.75c0.62-0.14,1.24-0.25,1.85-0.41c5.57-1.47,11.14-2.96,16.71-4.43c0.47,6.28,3.94,10.33,9.54,12.75
			c1.85,0.8,3.75,1.48,5.63,2.21c-3.53,2.57-7.22,4.9-10.91,7.24c-1.02-0.78-2.03-1.57-3.29-2.54c0,1.8,0,3.28,0,4.75
			c-2.78,1.88-5.56,3.76-8.34,5.64C150.21,149.6,149.94,149.78,149.6,149.76z"/>
		<path class="st1" d="M131.11,162.37c-5.7-6.33-16.41-19.95-17.45-22.29c1.58,0,3.08,0,4.57,0c1.78,0,3.56,0.09,5.33-0.03
			c1.2-0.08,1.72,0.43,1.98,1.48c0.22,0.86,0.46,1.72,0.75,2.55c0.68,1.91,0.05,3.48-1.18,4.91c-0.52,0.61-1.06,1.19-1.82,2.05
			c0.94,0,1.55,0,2.16,0c6.73,0,13.46,0,20.19,0c0.7,0,1.39,0.05,2.09,0.08c-1.79,1.51-3.82,2.69-5.75,4
			C138.38,157.56,134.73,159.96,131.11,162.37z"/>
		<path class="st1" d="M189.96,123.73c-3.1-1.85-6.44-3.13-9.85-4.25c-1.61-0.53-3.23-1.06-4.71-1.92c-1.15-0.66-2.28-1.36-2.6-2.81
			c4.1-1.42,8.2-2.85,12.3-4.27c2.84,3.64,5.37,7.49,7.75,11.44C191.89,122.52,190.93,123.13,189.96,123.73z"/>
		<path class="st1" d="M179.74,136.78c1.2,0.57,2.35,1.24,3.24,2.24c1.53,1.71,1.29,3.55-0.66,4.76c-2.04,1.27-4.36,1.59-6.7,1.75
			c-2.66,0.18-5.29,0.05-7.79-1.01C171.72,141.81,175.72,139.28,179.74,136.78z"/>
		<path class="st4" d="M158.8,143.79c0-1.48,0-2.95,0-4.75c1.26,0.98,2.28,1.76,3.29,2.54C161.13,142.52,159.99,143.19,158.8,143.79
			z"/>
		<path class="st1" d="M197.58,130.14c-0.96-1.03-1.93-2.07-2.89-3.11c0.27-0.26,0.54-0.52,0.81-0.78
			C196.31,127.49,197.27,128.64,197.58,130.14z"/>
		<path class="st1" d="M134.37,111.25c-0.87-2.24-1.77-4.46-2.58-6.72c-0.31-0.89-0.7-1.32-1.73-1.32
			c-7.41,0.04-14.81,0.02-22.22,0.03c-0.31,0-0.64-0.07-0.91,0.31c0.69,0.78,1.42,1.54,2.08,2.37c1.38,1.72,1.99,3.6,1.3,5.83
			c-0.82,2.65-1.24,5.41-2.22,8.02c-2.26,0.7-4.51,1.41-6.77,2.11c-5.86-10.12-10.93-20.61-14.44-31.79
			c-2.29-7.29-3.9-14.71-3.88-22.4c0.01-3.63,0.46-7.21,1.72-10.65c2.54-6.95,7.83-10.85,15.2-11.23c5.1-0.26,9.95,0.88,14.69,2.61
			c8.35,3.06,15.87,7.62,23.04,12.81c12.66,9.17,23.75,20.03,33.93,31.84c1.07,1.24,2.22,2.44,3.1,3.84
			c-1.53,0.6-3.06,1.22-4.61,1.8C158.27,103.17,146.42,107.5,134.37,111.25z M106.51,62.79c3.25,0.61,3.7,1.06,3.93,3.73
			c0.79-3.04,1.61-3.67,4.28-3.61c-0.17-0.06-0.76-0.23-1.38-0.22c-0.7,0.01-1.18-0.25-1.56-0.85c-0.32-0.5-1.12-0.61-1.11-1.42
			c0.01-0.55-0.11-1.11-0.22-2.01C110.13,62.04,109.67,62.55,106.51,62.79z M101.89,65.06c-0.49,0.12-1.01,0.34-1.04,1.03
			c-0.02,0.65,0.34,1.06,1,1.11c0.67,0.05,1.08-0.34,1.13-0.98C103.04,65.56,102.6,65.22,101.89,65.06z M98.43,60.63
			c-0.09-0.63-0.41-1.03-1.08-1.03c-0.67,0-1.06,0.38-1.07,1.03c-0.01,0.66,0.42,1.04,1.06,1.04
			C97.99,61.67,98.36,61.29,98.43,60.63z"/>
		<path class="st2" d="M134.35,111.25c12.05-3.75,23.9-8.08,35.7-12.54c1.54-0.58,3.07-1.2,4.61-1.8c1.86,1.95,3.44,4.11,5.22,6.43
			c-2.14,0-3.94,0.03-5.74-0.01c-4.88-0.1-9.06,1.52-12.4,5.1c-2.52,2.69-3.83,5.91-3.86,9.62c0,0.44-0.04,0.88-0.06,1.32
			c-5.57,1.48-11.14,2.96-16.71,4.43c-0.61,0.16-1.24,0.27-1.85,0.41c-0.71-0.91-0.92-2.04-1.31-3.08
			C136.73,117.84,135.38,114.61,134.35,111.25z"/>
		<path class="st1" d="M219.16,133.9c1.73-5.66,3.43-11.2,5.12-16.73c0.11-0.01,0.22-0.02,0.33-0.03
			c2.24,5.54,4.47,11.08,6.77,16.76C227.18,133.9,223.27,133.9,219.16,133.9z"/>
		<path class="st2" d="M185.11,110.48c-4.1,1.43-8.2,2.85-12.3,4.27c-0.51-1.59-0.28-2.52,0.91-3.49c0.85-0.7,1.86-1.08,2.92-1.32
			c2.51-0.57,5.03-0.53,7.54-0.02C184.57,110,184.92,110.09,185.11,110.48z"/>
		<path class="st7" d="M198.73,132.04c-0.26-0.53-0.53-1.05-0.79-1.58C198.2,130.99,198.47,131.52,198.73,132.04z"/>
		<path class="st7" d="M197.96,130.51c-0.27-0.01-0.35-0.2-0.42-0.42C197.83,130.08,197.89,130.3,197.96,130.51z"/>
		<path class="st1" d="M58.05,137.96c-3.39,1.37-6.78,2.74-10.18,4.12c-0.03-4.5-0.06-8.99-0.08-13.49c-0.01-2.41,0-4.81,0-7.18
			c0.23-0.16,0.4-0.13,0.5,0.05C51.57,126.94,54.97,132.36,58.05,137.96z"/>
		<path class="st2" d="M111.66,131.21c1.36-4.55,2.73-9.11,4.1-13.66c0.03-0.1,0.18-0.15,0.49-0.41c1.57,3.98,3.11,7.89,4.65,11.8
			C117.82,129.7,114.74,130.46,111.66,131.21z"/>
		<path class="st1" d="M111.65,131.21c3.08-0.75,6.15-1.51,9.23-2.26c0.78,1.57,1.44,3.18,1.98,4.96c-4.02,0-7.91,0-11.87,0
			C110.86,132.9,111.32,132.07,111.65,131.21z"/>
		<path class="st6" d="M106.5,62.79c3.16-0.24,3.62-0.75,3.96-4.39c0.1,0.9,0.22,1.46,0.22,2.01c-0.01,0.81,0.78,0.92,1.11,1.42
			c0.38,0.59,0.86,0.86,1.56,0.85c0.61-0.01,1.21,0.16,1.38,0.22c-2.67-0.06-3.5,0.57-4.28,3.61
			C110.2,63.85,109.75,63.4,106.5,62.79z"/>
		<path class="st6" d="M101.87,65.06c0.71,0.16,1.15,0.51,1.1,1.16c-0.05,0.63-0.47,1.02-1.13,0.98c-0.66-0.05-1.02-0.46-1-1.11
			C100.86,65.4,101.38,65.18,101.87,65.06z"/>
		<path class="st6" d="M98.43,60.63c-0.08,0.66-0.45,1.04-1.09,1.03c-0.64-0.01-1.07-0.38-1.06-1.04c0.01-0.65,0.4-1.03,1.07-1.03
			C98.02,59.6,98.34,60,98.43,60.63z"/>
	</g>
</g>
</svg>
