<?xml version="1.0" encoding="utf-8"?>
<!-- Generator: Adobe Illustrator 26.5.0, SVG Export Plug-In . SVG Version: 6.00 Build 0)  -->
<svg version="1.1" id="Layer_1" xmlns="http://www.w3.org/2000/svg" xmlns:xlink="http://www.w3.org/1999/xlink" x="0px" y="0px"
	 viewBox="0 0 311.85 369.58" style="enable-background:new 0 0 311.85 369.58;" xml:space="preserve">
<style type="text/css">
	.st0{fill:#BABABA;}
	.st1{fill:#F48127;}
</style>
<path class="st0" d="M0,238.03c9.16,0,18.33,0.22,27.49-0.1c4.31-0.15,5.66,0.92,5.62,5.44c-0.22,29.22-0.01,58.44-0.22,87.66
	c-0.03,4.62,1.29,5.75,5.82,5.74c73.14-0.14,146.28-0.15,219.42,0.02c4.96,0.01,6-1.43,5.96-6.12c-0.22-29.22-0.05-58.44-0.19-87.66
	c-0.02-3.81,0.85-5.25,4.95-5.08c7.98,0.33,15.99,0.18,23.99,0.05c2.8-0.04,4.2,0.48,4.2,3.77c-0.09,41.34-0.12,82.68,0.02,124.02
	c0.01,4.33-2.47,3.79-5.15,3.79c-34.65-0.01-69.31-0.01-103.96-0.01c-62.64,0-125.29,0-187.93,0C0,325.71,0,281.87,0,238.03z"/>
<path class="st1" d="M227.94,261.54c-21.76-4.53-43.88-9.1-65.99-13.74c-29.59-6.2-59.15-12.51-88.77-18.57
	c-3.46-0.71-4.3-1.58-3.41-5.12c2.02-8.02,3.62-16.16,5.13-24.3c0.53-2.87,1.25-3.84,4.5-3.15c51.52,10.9,103.06,21.66,154.62,32.37
	c2.88,0.6,3.8,1.5,3.09,4.56c-1.96,8.38-3.56,16.85-5.33,25.27C231.39,260.71,230.99,262.64,227.94,261.54z"/>
<path class="st1" d="M213.54,0c1.83,0.19,2.28,1.84,3.13,2.97c17.12,22.87,34.19,45.76,51.28,68.65
	c14.11,18.9,28.16,37.83,42.38,56.65c2.02,2.67,2.27,4.12-0.74,6.21c-6.96,4.83-13.76,9.92-20.43,15.14
	c-2.36,1.85-3.42,1.27-5.02-0.87c-31.43-42.23-62.91-84.42-94.41-126.6c-1.27-1.7-2.47-2.93,0.09-4.76
	c7.44-5.31,14.72-10.85,22.06-16.3C212.41,0.7,212.99,0.36,213.54,0z"/>
<path class="st1" d="M105.3,121.53c0.94,0.4,2.02,0.83,3.07,1.32c47.5,22.06,94.98,44.14,142.51,66.12
	c2.57,1.19,3.65,2.07,2.16,5.04c-3.86,7.71-7.5,15.54-10.97,23.43c-1.19,2.7-2.39,2.84-4.87,1.69
	c-47.77-22.25-95.58-44.42-143.39-66.59c-1.9-0.88-3.62-1.41-2.22-4.27c4.02-8.19,7.74-16.52,11.63-24.77
	C103.6,122.67,103.8,121.49,105.3,121.53z"/>
<path class="st1" d="M279.86,158.35c-0.48,0.62-0.98,1.28-1.5,1.91c-5.55,6.63-11.25,13.14-16.58,19.93
	c-2.24,2.85-3.67,2.13-5.95,0.23c-24.14-20.14-48.35-40.19-72.54-60.27c-15.87-13.17-31.69-26.4-47.67-39.44
	c-2.96-2.41-3.35-3.97-0.64-6.95c5.37-5.89,10.47-12.05,15.35-18.36c2.2-2.84,3.59-2.74,6.21-0.55
	c26.41,22.08,52.93,44.04,79.42,66.03c13.69,11.37,27.4,22.71,41.07,34.11C278.1,155.9,279.65,156.5,279.86,158.35z"/>
<path class="st1" d="M148.23,303.79c-25.82,0-51.64-0.1-77.46,0.1c-4.05,0.03-4.99-1.17-4.86-4.98c0.28-8.12,0.19-16.27,0.03-24.4
	c-0.06-2.77,0.71-3.68,3.6-3.67c52.64,0.08,105.28,0.08,157.92,0c2.92,0,3.63,0.94,3.58,3.69c-0.16,8.3-0.32,16.61,0.05,24.89
	c0.19,4.13-1.53,4.44-4.9,4.43C200.2,303.74,174.21,303.79,148.23,303.79z"/>
</svg>
